<svg width="84" height="100" viewBox="0 0 84 100" fill="none" xmlns="http://www.w3.org/2000/svg">
<g opacity="0.1">
<path d="M17.2238 11.454H17.2289L28.3324 11.4259C29.3756 11.42 30.2177 10.5719 30.2168 9.52791C30.2151 8.48474 29.3705 7.63842 28.3264 7.63586H28.3213L17.2187 7.66399H17.2179C16.1747 7.66996 15.3318 8.51798 15.3335 9.562C15.3352 10.6052 16.1798 11.4515 17.2238 11.454H17.2238Z" fill="#F3EBDD"/>
<path d="M16.74 19.0903H16.7434L28.365 19.0664C29.4099 19.0604 30.2537 18.2116 30.252 17.1675C30.2511 16.1227 29.4057 15.2755 28.3616 15.2721H28.3582L16.7365 15.296C15.6916 15.3019 14.8488 16.1508 14.8496 17.1948C14.8505 18.2397 15.6959 19.0869 16.74 19.0903Z" fill="#F3EBDD"/>
<path d="M16.2575 26.7266H16.2609L28.4016 26.7062H28.4025C29.4508 26.7053 30.3005 25.8539 30.2996 24.8056C30.2979 23.7565 29.4474 22.9076 28.3982 22.9084H28.3948L16.2541 22.9289C15.2049 22.9298 14.3561 23.7812 14.3569 24.8295C14.3578 25.8786 15.2092 26.7275 16.2575 26.7266Z" fill="#F3EBDD"/>
<path d="M15.7778 34.3631H15.7795L28.4425 34.346C29.4917 34.346 30.3422 33.4946 30.3422 32.4446C30.3414 31.3946 29.49 30.5441 28.44 30.5449H28.4383L15.7752 30.562C14.726 30.562 13.8755 31.4134 13.8755 32.4634C13.8763 33.5134 14.7278 34.3639 15.7778 34.3631Z" fill="#F3EBDD"/>
<path d="M15.294 41.9995H15.2957L28.4796 41.9867H28.4804C29.5279 41.9816 30.3742 41.1301 30.3733 40.0827C30.3733 39.0352 29.5262 38.1855 28.4787 38.1813H28.477L15.2932 38.1941H15.2923C14.2449 38.1992 13.3986 39.0506 13.3994 40.098C13.4003 41.1455 14.2466 41.9952 15.294 41.9995Z" fill="#F3EBDD"/>
<path d="M14.8155 49.6358H14.8172L28.5175 49.6248C29.5683 49.6239 30.4206 48.7716 30.4198 47.7199C30.4189 46.6691 29.5666 45.8168 28.5149 45.8176H28.5132L14.8129 45.8287C13.7621 45.8296 12.9098 46.6818 12.9106 47.7335C12.9115 48.7844 13.7638 49.6367 14.8155 49.6358Z" fill="#F3EBDD"/>
<path d="M14.331 57.2722H14.3327L28.5562 57.2645C29.6087 57.2645 30.461 56.4105 30.461 55.3588C30.4602 54.3063 29.607 53.4531 28.5545 53.454H28.5528L14.3293 53.4617C13.2767 53.4617 12.4244 54.3156 12.4253 55.3673C12.4253 56.4199 13.2793 57.273 14.331 57.2722Z" fill="#F3EBDD"/>
<path d="M13.8407 64.9085L28.6029 64.9051C29.6572 64.9051 30.512 64.0503 30.512 62.996C30.512 61.9409 29.6572 61.0869 28.6029 61.0869L13.8407 61.0903C12.7865 61.0903 11.9316 61.9452 11.9316 62.9994C11.9316 64.0537 12.7865 64.9085 13.8407 64.9085Z" fill="#F3EBDD"/>
<path d="M28.6359 68.7267H13.3632C12.3089 68.7267 11.4541 69.5815 11.4541 70.6358C11.4541 71.69 12.3089 72.5449 13.3632 72.5449H28.6359C29.6902 72.5449 30.545 71.69 30.545 70.6358C30.545 69.5815 29.6902 68.7267 28.6359 68.7267Z" fill="#F3EBDD"/>
<path d="M83.9906 74.406C83.9898 74.3881 83.9992 74.3719 83.9983 74.354L80.1801 1.80853C80.1264 0.794335 79.2887 0 78.2727 0H5.72728C4.71138 0 3.87358 0.794313 3.81989 1.80853L0.00170455 74.354C0.000852327 74.3719 0.0102272 74.3881 0.009375 74.406L0 74.4546V82.0909C0 82.5972 0.201137 83.083 0.559091 83.4409C0.917044 83.7989 1.40284 84 1.90909 84H3.81818V97.3636C3.81818 97.8699 4.01932 98.3557 4.37727 98.7137C4.73523 99.0716 5.22103 99.2727 5.72727 99.2727H78.2727C78.779 99.2727 79.2648 99.0716 79.6227 98.7137C79.9807 98.3557 80.1818 97.8699 80.1818 97.3636V84H82.0909C82.5972 84 83.083 83.7989 83.4409 83.4409C83.7989 83.083 84 82.5972 84 82.0909V74.4546L83.9906 74.406ZM38.1812 3.81761H66.8764L68.6662 61.0903H38.1819L38.1812 3.81761ZM26.7266 87.8176H15.2721V80.1813H26.7266V87.8176ZM78.2721 72.5449C77.7658 72.5449 77.28 72.746 76.9221 73.104C76.5641 73.4619 76.363 73.9477 76.363 74.454V87.8176H30.5448V78.2722C30.5448 77.7659 30.3437 77.2801 29.9857 76.9222C29.6278 76.5642 29.142 76.3631 28.6357 76.3631H13.363C12.8567 76.3631 12.3709 76.5642 12.013 76.9222C11.655 77.2801 11.4539 77.7659 11.4539 78.2722V87.8176H7.63572V74.454C7.63572 73.9477 7.43458 73.4619 7.07663 73.104C6.71868 72.746 6.23288 72.5449 5.72663 72.5449H3.91982L7.53859 3.81761H34.364V62.9994C34.364 63.5057 34.5652 63.9915 34.9231 64.3494C35.2811 64.7074 35.7669 64.9085 36.2731 64.9085H70.6368C71.1532 64.9085 71.6484 64.6989 72.0081 64.3281C72.3677 63.9574 72.5612 63.4562 72.5459 62.9398L70.6981 3.81685H76.4612L80.0799 72.5441L78.2721 72.5449Z" fill="#F3EBDD"/>
</g>
</svg>
