<svg width="48" height="48" viewBox="0 0 48 48" fill="none" xmlns="http://www.w3.org/2000/svg">
<rect width="48" height="48" rx="16" fill="#FDAC00"/>
<path d="M39.5999 30V28.8H38.3999V30V31.2H39.5999V30Z" fill="#373737"/>
<path d="M39.5999 25.2H38.3999V26.4H39.5999V25.2Z" fill="#373737"/>
<path d="M37.2001 24H36.0001H34.8001V25.2V26.4V27.6V28.8V30V31.2V32.4H33.6001V33.6H32.4001V34.8H31.2001V36H30.0001V37.2H28.8001H27.6001V38.4H26.4001H25.2001H24.0001H22.8001H21.6001H20.4001V37.2H19.2001H18.0001V36H16.8001V34.8H15.6001V33.6H14.4001V32.4H13.2001V31.2V30V28.8V27.6V26.4V25.2V24H12.0001H10.8001H9.6001V25.2H10.8001H12.0001V26.4V27.6V28.8V30V31.2H10.8001H9.6001V32.4H10.8001H12.0001V33.6H13.2001V34.8H14.4001V36H15.6001V37.2H16.8001V38.4H18.0001H19.2001V39.6H20.4001H21.6001H22.8001H24.0001H25.2001H26.4001H27.6001H28.8001V38.4H30.0001H31.2001V37.2H32.4001V36H33.6001V34.8H34.8001V33.6H36.0001V32.4H37.2001H38.4001V31.2H37.2001H36.0001V30V28.8V27.6V26.4V25.2H37.2001H38.4001V24H37.2001Z" fill="#373737"/>
<path d="M33.6001 18H34.8001V19.2V20.4V21.6V22.8H36.0001V21.6V20.4V19.2V18V16.8H34.8001V15.6H33.6001V16.8V18Z" fill="#373737"/>
<path d="M29.9998 12V13.2H31.1998V14.4H32.3998V15.6H33.5998V14.4V13.2H32.3998V12H31.1998V10.8H29.9998H28.7998V12H29.9998Z" fill="#373737"/>
<path d="M21.6002 10.8H22.8002H24.0002H25.2002H26.4002H27.6002H28.8002V9.59998H27.6002H26.4002H25.2002H24.0002H22.8002H21.6002H20.4002H19.2002V10.8H20.4002H21.6002Z" fill="#373737"/>
<path d="M15.5999 14.4H16.7999V13.2H17.9999V12H19.1999V10.8H17.9999H16.7999V12H15.5999V13.2H14.3999V14.4V15.6H15.5999V14.4Z" fill="#373737"/>
<path d="M13.2 21.6V20.4V19.2V18H14.4V16.8V15.6H13.2V16.8H12V18V19.2V20.4V21.6V22.8H13.2V21.6Z" fill="#373737"/>
<path d="M9.5999 30H8.3999V31.2H9.5999V30Z" fill="#373737"/>
<path d="M9.5999 27.6H8.3999V28.8H9.5999V27.6Z" fill="#373737"/>
<path d="M9.5999 25.2H8.3999V26.4H9.5999V25.2Z" fill="#373737"/>
<path d="M32.3999 26.4V27.6H31.1999V28.8H29.9999H28.7999H27.5999V27.6H26.3999V26.4V25.2H25.1999H23.9999H22.7999H21.5999V26.4V27.6H20.3999V28.8H19.1999H17.9999H16.7999V27.6H15.5999V26.4V25.2H14.3999V26.4V27.6V28.8V30V31.2H15.5999V32.4H16.7999V33.5999H17.9999V34.7999H19.1999V35.9999H20.3999H21.5999V37.1999H22.7999H23.9999H25.1999H26.3999V35.9999H27.5999H28.7999V34.7999H29.9999V33.5999H31.1999V32.4H32.3999V31.2H33.5999V30V28.8V27.6V26.4V25.2H32.3999V26.4Z" fill="#F3BFB0"/>
<path d="M37.2 26.4V27.6V28.8V30H36V31.2H37.2H38.4V30V28.8V27.6V26.4H37.2Z" fill="#F3BFB0"/>
<path d="M32.3999 14.4H31.1999V13.2H29.9999V12H28.7999V10.8H27.5999H26.3999H25.1999H23.9999H22.7999H21.5999H20.3999H19.1999V12H17.9999V13.2H16.7999V14.4H15.5999V15.6H14.3999V16.8V18V19.2V20.4V21.6H15.5999H16.7999H17.9999H19.1999H20.3999H21.5999H22.7999V22.8H23.9999H25.1999V21.6H26.3999H27.5999H28.7999H29.9999H31.1999H32.3999H33.5999V20.4V19.2V18V16.8V15.6H32.3999V14.4Z" fill="#F3BFB0"/>
<path d="M9.6001 30V31.2H10.8001H12.0001V30H10.8001H9.6001Z" fill="#F3BFB0"/>
<path d="M10.8001 27.6H9.6001V28.8H10.8001V27.6Z" fill="#F3BFB0"/>
<path d="M38.3999 26.4V27.6V28.8H39.5999V27.6V26.4H38.3999Z" fill="#FDAC00"/>
<path d="M8.3999 28.8V30H9.5999H10.7999V28.8H9.5999H8.3999Z" fill="#FDAC00"/>
<path d="M8.3999 26.4V27.6H9.5999H10.7999V26.4H9.5999H8.3999Z" fill="#FDAC00"/>
<path d="M37.2 25.2H36V26.4V27.6V28.8V30H37.2V28.8V27.6V26.4H38.4V25.2H37.2Z" fill="#EBA596"/>
<path d="M33.6001 19.2V20.4V21.6V22.8H34.8001V21.6V20.4V19.2V18H33.6001V19.2Z" fill="#EBA596"/>
<path d="M32.4002 24V25.2H33.6002V26.4V27.6V28.8V30V31.2H32.4002V32.4H31.2002V33.6H30.0002V34.8H28.8002V36H27.6002H26.4002V37.2H25.2002H24.0002H22.8002H21.6002V36H20.4002H19.2002V34.8H18.0002V33.6H16.8002V32.4H15.6002V31.2H14.4002V30V28.8V27.6V26.4V25.2H15.6002V24H14.4002H13.2002V25.2V26.4V27.6V28.8V30V31.2V32.4H14.4002V33.6H15.6002V34.8H16.8002V36H18.0002V37.2H19.2002H20.4002V38.4H21.6002H22.8002H24.0002H25.2002H26.4002H27.6002V37.2H28.8002H30.0002V36H31.2002V34.8H32.4002V33.6H33.6002V32.4H34.8002V31.2V30V28.8V27.6V26.4V25.2V24H33.6002H32.4002Z" fill="#EBA596"/>
<path d="M32.4002 26.4H31.2002V27.6H32.4002V26.4Z" fill="#EBA596"/>
<path d="M28.8001 28.8H30.0001H31.2001V27.6H30.0001H28.8001H27.6001V28.8H28.8001Z" fill="#EBA596"/>
<path d="M27.5999 26.4H26.3999V27.6H27.5999V26.4Z" fill="#EBA596"/>
<path d="M24.0001 25.2H25.2001H26.4001V24H25.2001H24.0001H22.8001H21.6001V25.2H22.8001H24.0001Z" fill="#EBA596"/>
<path d="M21.5999 26.4H20.3999V27.6H21.5999V26.4Z" fill="#EBA596"/>
<path d="M17.9998 28.8H19.1998H20.3998V27.6H19.1998H17.9998H16.7998V28.8H17.9998Z" fill="#EBA596"/>
<path d="M16.8001 26.4H15.6001V27.6H16.8001V26.4Z" fill="#EBA596"/>
<path d="M14.4002 21.6V20.4V19.2V18H13.2002V19.2V20.4V21.6V22.8H14.4002V21.6Z" fill="#EBA596"/>
<path d="M9.6001 25.2V26.4H10.8001V27.6V28.8V30H12.0001V28.8V27.6V26.4V25.2H10.8001H9.6001Z" fill="#EBA596"/>
<path d="M34.8 22.8H33.6V21.6H25.2V22.8H22.8V21.6H14.4V22.8H12V24H15.6V26.4H16.8V27.6H20.4V26.4H21.6V24H26.4V26.4H27.6V27.6H31.2V26.4H32.4V24H36V22.8H34.8ZM20.4 24V25.2H19.2V22.8H20.4V24ZM31.2 24V25.2H30V22.8H31.2V24Z" fill="#D08F6C"/>
<path d="M30 22.8V24V25.2H31.2V24V22.8H30Z" fill="#F5F1D4"/>
<path d="M19.2002 24V25.2H20.4002V24V22.8H19.2002V24Z" fill="#F5F1D4"/>
</svg>
