<svg width="21" height="20" viewBox="0 0 21 20" fill="none" xmlns="http://www.w3.org/2000/svg">
<path d="M18.2917 8.36788H17.6204V8.33329H10.1204V11.6666H14.83C14.1429 13.607 12.2967 15 10.1204 15C7.35919 15 5.12044 12.7612 5.12044 9.99996C5.12044 7.23871 7.35919 4.99996 10.1204 4.99996C11.395 4.99996 12.5546 5.48079 13.4375 6.26621L15.7946 3.90913C14.3063 2.52204 12.3154 1.66663 10.1204 1.66663C5.51836 1.66663 1.78711 5.39788 1.78711 9.99996C1.78711 14.602 5.51836 18.3333 10.1204 18.3333C14.7225 18.3333 18.4538 14.602 18.4538 9.99996C18.4538 9.44121 18.3963 8.89579 18.2917 8.36788Z" fill="#013094"/>
<path d="M2.74805 6.12121L5.48596 8.12913C6.2268 6.29496 8.02096 4.99996 10.1205 4.99996C11.3951 4.99996 12.5547 5.48079 13.4376 6.26621L15.7947 3.90913C14.3064 2.52204 12.3155 1.66663 10.1205 1.66663C6.91971 1.66663 4.14388 3.47371 2.74805 6.12121Z" fill="#013094"/>
<path d="M10.1199 18.3334C12.2724 18.3334 14.2283 17.5096 15.707 16.17L13.1278 13.9875C12.2631 14.6452 11.2064 15.0009 10.1199 15C7.95242 15 6.112 13.618 5.41867 11.6892L2.70117 13.783C4.08034 16.4817 6.88117 18.3334 10.1199 18.3334Z" fill="#013094"/>
<path d="M18.2914 8.36796H17.6201V8.33337H10.1201V11.6667H14.8297C14.501 12.5902 13.909 13.3972 13.1268 13.988L13.128 13.9871L15.7072 16.1696C15.5247 16.3355 18.4535 14.1667 18.4535 10C18.4535 9.44129 18.396 8.89587 18.2914 8.36796Z" fill="#013094"/>
</svg>
