<svg width="129" height="44" viewBox="0 0 129 44" fill="none" xmlns="http://www.w3.org/2000/svg">
<g clip-path="url(#clip0_1304_39635)">
<path d="M44.7503 20.1514C44.7503 18.7916 44.6925 17.4331 44.5894 16.0771C44.5017 14.85 44.3406 13.6292 44.1068 12.4213C43.7663 10.7072 43.246 9.05335 42.3965 7.52016C41.0028 4.99794 38.9794 3.15183 36.3743 1.94288C35.1827 1.40323 33.9346 0.998156 32.6532 0.735175C31.8086 0.551695 30.9553 0.41974 30.097 0.315433C29.5792 0.252598 29.059 0.21741 28.5387 0.173425C25.8028 -0.0552969 23.0607 -1.54204e-06 20.3198 0.0138223C19.5658 0.0138223 18.8042 0.0527804 18.0464 0.100535C17.2195 0.154574 16.3926 0.226207 15.5682 0.31292C13.8088 0.513994 12.0695 0.852049 10.3955 1.46281C7.89342 2.37518 5.79848 3.85056 4.18863 5.98697C3.22956 7.28362 2.50013 8.73525 2.03212 10.2786C1.64512 11.5445 1.36927 12.8418 1.20771 14.1556C1.02675 15.5581 0.869658 17.0071 0.880968 18.4247C0.892279 19.8422 0.755297 21.2724 0.777918 22.6975C0.794255 23.875 0.912386 25.0526 0.912386 26.2301C0.953858 27.0306 1.01418 27.8286 1.07702 28.6279C1.14925 29.4976 1.26628 30.3629 1.42764 31.2205C1.76569 33.0603 2.29854 34.8348 3.21091 36.4773C4.68755 39.1328 6.84532 41.0279 9.63899 42.2079C10.8107 42.6994 12.0328 43.0606 13.2835 43.2849C13.9864 43.4114 14.6918 43.522 15.3998 43.6167C15.9163 43.6858 16.4378 43.7172 16.9568 43.7612C20.7339 44.0748 24.5304 44.0748 28.3074 43.7612C31.0383 43.5363 33.8998 43.2585 36.3906 42.0169C39.6505 40.5013 41.9063 38.0482 43.207 34.7041C43.6799 33.4604 44.0235 32.1714 44.2325 30.8573C44.4373 29.6805 44.5716 28.4924 44.6347 27.2996C44.6874 26.1924 44.7352 25.084 44.7528 23.9755C44.7666 22.7012 44.7503 21.4257 44.7503 20.1514Z" fill="#013094"/>
<path d="M23.0654 15.0529C23.0654 17.9442 23.0692 20.8367 23.0767 23.7305C23.0767 25.941 23.0855 27.6803 23.0855 29.671C23.0855 30.2817 23.0855 30.9176 23.0855 31.5975C23.0855 31.7232 23.0855 31.8287 23.0855 31.9255C23.0855 32.0512 23.0855 32.1505 23.073 32.2397C23.0475 32.3637 22.9837 32.4765 22.8905 32.5622C22.7974 32.6479 22.6796 32.7022 22.5539 32.7172H22.417C22.2681 32.7017 22.1302 32.6316 22.03 32.5205C21.9297 32.4093 21.8742 32.265 21.8741 32.1153V14.3265H17.0332V32.1618C17.0332 35.2935 19.3053 37.5656 22.4371 37.5656C25.6077 37.5656 27.9075 35.2935 27.9075 32.1618V14.3265H23.0654V15.0529Z" fill="#D62500"/>
<path d="M39.9395 19.0744C39.7019 17.9322 39.132 16.8858 38.3013 16.0667C37.4705 15.2476 36.4162 14.6925 35.2708 14.471V27.008C35.2712 27.0839 35.2562 27.1592 35.2268 27.2292C35.1978 27.3077 35.1519 27.3789 35.0923 27.4378C34.979 27.5512 34.8253 27.6149 34.6651 27.615C34.5697 27.6152 34.4757 27.5923 34.3911 27.5484C34.3067 27.5057 34.2336 27.4438 34.1777 27.3676C34.1218 27.2914 34.0847 27.2031 34.0694 27.1098C34.0629 27.0762 34.0595 27.0422 34.0593 27.008V14.3265H33.8406H29.2285V37.5656H34.0694V31.727C37.5794 31.6189 40.1016 29.02 40.1016 25.4685V20.5887C40.1036 20.0795 40.0493 19.5716 39.9395 19.0744Z" fill="#D62500"/>
<path d="M5.4248 19.7166V24.5587C7.33036 24.5603 9.19803 24.0264 10.8148 23.0179V37.5656H15.6557V14.3265H10.8174C10.8157 15.756 10.2469 17.1264 9.23592 18.1369C8.22491 19.1474 6.85426 19.7156 5.4248 19.7166Z" fill="#D62500"/>
<path d="M23.0654 11.0993C23.0654 13.9914 23.0692 16.8839 23.0767 19.7769C23.0767 21.9874 23.0855 23.7267 23.0855 25.7174C23.0855 26.3281 23.0855 26.964 23.0855 27.6439C23.0855 27.7696 23.0855 27.8751 23.0855 27.9719C23.0855 28.0976 23.0855 28.1969 23.073 28.2861C23.0475 28.4101 22.9837 28.5229 22.8905 28.6086C22.7974 28.6943 22.6796 28.7486 22.5539 28.7636H22.417C22.2681 28.7481 22.1302 28.678 22.03 28.5668C21.9297 28.4557 21.8742 28.3113 21.8741 28.1617V10.3729H17.0332V28.2082C17.0332 31.3399 19.3053 33.612 22.4371 33.612C25.6077 33.612 27.9075 31.3399 27.9075 28.2082V10.3729H23.0654V11.0993Z" fill="#FC8831"/>
<path d="M33.8406 10.3729H29.2285V33.612H34.0694V27.7733C37.5794 27.6653 40.1016 25.0664 40.1016 21.5149V16.6351C40.1016 13.007 37.4713 10.3729 33.8406 10.3729ZM34.0593 11.1395C34.0599 11.0196 34.096 10.9026 34.1631 10.8033C34.2303 10.704 34.3253 10.6268 34.4363 10.5815C34.5282 10.5439 34.6279 10.5294 34.7267 10.5393C34.8255 10.5492 34.9204 10.5831 35.003 10.6382C35.0856 10.6933 35.1535 10.7678 35.2006 10.8552C35.2477 10.9426 35.2727 11.0402 35.2733 11.1395V23.0544C35.2737 23.1303 35.2587 23.2056 35.2293 23.2756C35.2003 23.3541 35.1544 23.4253 35.0948 23.4842C34.9815 23.5976 34.8279 23.6613 34.6676 23.6614C34.5722 23.6616 34.4782 23.6387 34.3936 23.5948C34.2938 23.5441 34.2099 23.4669 34.1514 23.3715C34.0928 23.2761 34.0618 23.1663 34.0618 23.0544L34.0593 11.1395Z" fill="#FC8831"/>
<path d="M5.4248 15.7629V20.6101C7.3317 20.6107 9.20034 20.075 10.8174 19.0643V33.612H15.6582V10.3729H10.8174C10.8157 11.8024 10.2469 13.1728 9.23592 14.1833C8.22491 15.1938 6.85426 15.7619 5.4248 15.7629Z" fill="#FC8831"/>
<path d="M23.0654 7.14567C23.0654 10.0378 23.0692 12.9303 23.0767 15.8233C23.0767 18.0338 23.0855 19.7731 23.0855 21.7637C23.0855 22.3745 23.0855 23.0104 23.0855 23.6903C23.0855 23.8159 23.0855 23.9215 23.0855 24.0183C23.0855 24.144 23.0855 24.2432 23.073 24.3325C23.0471 24.4563 22.9832 24.5689 22.8901 24.6546C22.797 24.7402 22.6795 24.7946 22.5539 24.81H22.417C22.2681 24.7945 22.1302 24.7244 22.03 24.6132C21.9297 24.5021 21.8742 24.3577 21.8741 24.208V6.41929H17.0332V24.2545C17.0332 27.3863 19.3053 29.6584 22.4371 29.6584C25.6077 29.6584 27.9075 27.3863 27.9075 24.2545V6.41929H23.0654V7.14567Z" fill="#FDAC00"/>
<path d="M33.8406 6.41929H29.2285V29.6584H34.0694V23.8197C34.4731 23.8069 34.875 23.7598 35.2708 23.679C36.4163 23.4575 37.4708 22.9021 38.3015 22.0828C39.1323 21.2635 39.7021 20.2168 39.9395 19.0744C40.0489 18.5792 40.1033 18.0734 40.1016 17.5663V12.6815C40.1016 9.04833 37.4713 6.41929 33.8406 6.41929ZM35.2708 19.102C35.2712 19.178 35.2562 19.2532 35.2268 19.3232C35.1978 19.4017 35.1519 19.4729 35.0923 19.5318C35.0075 19.6163 34.8995 19.6737 34.782 19.6968C34.6646 19.7199 34.5429 19.7077 34.4324 19.6617C34.3218 19.6157 34.2274 19.538 34.161 19.4384C34.0946 19.3388 34.0592 19.2217 34.0593 19.102V11.1395C34.0599 11.0196 34.096 10.9026 34.1631 10.8033C34.2303 10.704 34.3253 10.6268 34.4363 10.5815C34.5282 10.5439 34.6279 10.5294 34.7267 10.5393C34.8255 10.5492 34.9204 10.5831 35.003 10.6382C35.0856 10.6933 35.1535 10.7678 35.2006 10.8552C35.2477 10.9426 35.2727 11.0402 35.2733 11.1395L35.2708 19.102Z" fill="#FDAC00"/>
<path d="M5.4248 11.8131V16.6514C7.33036 16.6531 9.19803 16.1192 10.8148 15.1107V29.6584H15.6557V6.41929H10.8174C10.8167 7.84939 10.2484 9.22075 9.23726 10.2321C8.22614 11.2435 6.85491 11.8121 5.4248 11.8131Z" fill="#FDAC00"/>
<path d="M47.1392 37.5656C48.4759 37.5656 49.5596 36.482 49.5596 35.1452C49.5596 33.8084 48.4759 32.7248 47.1392 32.7248C45.8024 32.7248 44.7188 33.8084 44.7188 35.1452C44.7188 36.482 45.8024 37.5656 47.1392 37.5656Z" fill="#D62500"/>
<path d="M49.9893 31.0998V12.8851C49.9893 9.09231 52.754 6.4507 56.5166 6.4507C59.6873 6.4507 62.2673 8.44007 62.858 11.6108C62.9353 12.177 62.9664 12.7486 62.951 13.3199V14.9059H58.2886C58.2886 13.3513 58.7913 11.1131 56.5166 11.1131C55.3353 11.1131 54.6517 11.6723 54.6517 12.8851V31.0998C54.6517 32.2497 55.28 32.8718 56.4236 32.8718C57.8839 32.8718 58.32 32.1567 58.32 30.851C58.32 30.2302 58.2886 29.6081 58.2886 28.9861H56.019V24.3237H62.951V31.0998C62.951 34.8926 60.1862 37.5342 56.4236 37.5342C52.6937 37.5342 49.9893 34.8298 49.9893 31.0998Z" fill="#D62500"/>
<path d="M71.418 6.4507C75.1479 6.4507 77.8523 9.15514 77.8523 12.8851V37.5342H73.1899V28.4017H69.553V37.5405H64.8906V12.8851C64.8906 9.09231 67.6566 6.4507 71.418 6.4507ZM73.1899 23.733V15.4387C73.1899 14.5376 73.3772 12.6413 73.004 11.8948C72.6923 11.3041 72.0086 11.1181 71.418 11.1181C69.6159 11.1181 69.5229 12.2064 69.5229 13.6667C69.5229 17.0247 69.5229 20.3813 69.553 23.738L73.1899 23.733Z" fill="#D62500"/>
<path d="M86.4024 6.4507C87.9883 6.4507 89.4185 6.95338 90.5055 7.818C91.6253 6.94836 93.0554 6.4507 94.6715 6.4507C98.4316 6.4507 101.136 9.15514 101.136 12.8851V37.5342H96.4737V15.4337C96.4737 14.5326 96.6295 12.6362 96.2562 11.8897C95.976 11.2991 95.2923 11.1131 94.6715 11.1131C93.3344 11.1131 92.9611 11.7038 92.8367 12.6362V37.5342H88.1429V12.8851C88.1355 12.8 88.1462 12.7143 88.1743 12.6337C88.0198 11.5768 87.5221 11.1106 86.4024 11.1106C84.6002 11.1106 84.5072 12.1989 84.5072 13.6592C84.5072 21.6167 84.5374 29.5742 84.5374 37.5367H79.875V12.8851C79.875 9.09231 82.6423 6.4507 86.4024 6.4507Z" fill="#D62500"/>
<path d="M103.197 6.4507H113.829V11.1131H107.857V23.733H112.12V28.4017H107.857V32.8781H113.825V37.5405H103.197V6.4507Z" fill="#D62500"/>
<path d="M115.594 28.7071V27.3385H120.256C120.256 28.8001 119.852 32.9032 122.058 32.9032C123.427 32.9032 123.893 31.0069 123.893 29.9186C123.893 26.9967 122.68 25.505 120.598 23.6086C119.852 22.8935 119.075 22.2099 118.391 21.4332C116.526 19.3194 115.594 16.8952 115.594 14.0664C115.594 10.212 117.862 6.41929 122.09 6.41929C125.323 6.41929 127.592 8.90632 128.338 11.8596C128.556 12.7607 128.589 13.6617 128.589 14.564V16.6464H123.927C123.927 15.2779 124.206 12.263 122.932 11.3934C122.68 11.2375 122.404 11.0817 122.092 11.0817C120.632 11.0817 120.259 12.9165 120.259 14.0664C120.259 16.8952 121.564 18.1381 123.526 19.9729C126.634 22.8332 128.562 25.3768 128.562 29.9198C128.562 32.7487 127.319 35.7007 124.645 36.9448C123.84 37.3368 122.96 37.5491 122.065 37.5669C118.797 37.5669 116.594 35.1729 115.849 32.163C115.562 31.0069 115.594 29.857 115.594 28.7071Z" fill="#D62500"/>
</g>
<defs>
<clipPath id="clip0_1304_39635">
<rect width="127.811" height="44" fill="white" transform="translate(0.775391)"/>
</clipPath>
</defs>
</svg>
