<svg width="129" height="44" viewBox="0 0 129 44" fill="none" xmlns="http://www.w3.org/2000/svg">
<g clip-path="url(#clip0_1239_28633)">
<path d="M44.7759 20.1583C44.7759 18.798 44.7168 17.4391 44.6137 16.0826C44.526 14.8551 44.3648 13.6339 44.131 12.4256C43.7903 10.7108 43.2698 9.05645 42.4212 7.52273C41.0208 4.99965 38.993 3.15291 36.3895 1.94353C35.1975 1.4037 33.9489 0.998491 32.6671 0.73542C31.8273 0.551877 30.9687 0.419877 30.1113 0.315534C29.5921 0.252677 29.0717 0.217477 28.5512 0.173477C25.8144 -0.0553228 23.0726 -8.46316e-06 20.3295 0.0138201C19.5752 0.0138201 18.8134 0.0527915 18.0553 0.100563C17.2281 0.15462 16.4009 0.226277 15.5762 0.31302C13.8162 0.514163 12.0763 0.852334 10.4018 1.46331C7.89885 2.37599 5.80319 3.85188 4.19279 5.98902C3.23299 7.28623 2.5025 8.73828 2.03302 10.2822C1.64589 11.5485 1.36995 12.8462 1.20834 14.1604C1.00242 15.8224 0.887434 17.4944 0.863879 19.1689C0.855079 19.5624 0.836222 19.9571 0.818622 20.3494C0.809976 20.427 0.795691 20.5039 0.775879 20.5794V23.4155C0.796462 23.505 0.811575 23.5957 0.821136 23.6871C0.852565 24.5394 0.871422 25.3905 0.915422 26.2416C0.956907 27.0424 1.01725 27.8407 1.08011 28.6402C1.15237 29.5102 1.26944 30.3758 1.43085 31.2337C1.76902 33.0742 2.30205 34.8493 3.21474 36.4923C4.69188 39.1487 6.85039 41.0445 9.64502 42.2249C10.8172 42.7164 12.0397 43.0777 13.2907 43.3023C13.9939 43.4288 14.6996 43.5395 15.4078 43.6342C15.9245 43.7033 16.4462 43.7347 16.9666 43.7787C18.3646 43.8956 19.7663 43.9233 21.1693 43.9648C21.2467 43.971 21.3236 43.9827 21.3993 44H24.2367C24.3267 43.9818 24.4179 43.9692 24.5095 43.9623C25.2537 43.9397 25.9979 43.9283 26.7422 43.8969C27.3569 43.8718 27.9704 43.8278 28.5851 43.7825C29.1257 43.741 29.6701 43.7083 30.2069 43.6354C31.0001 43.5261 31.7909 43.4066 32.5766 43.2583C33.8976 43.0088 35.1835 42.5998 36.4058 42.0401C39.6669 40.524 41.9234 38.07 43.2246 34.7248C43.6982 33.4809 44.042 32.1913 44.2504 30.8767C44.4541 29.6964 44.5876 28.505 44.6502 27.3089C44.7017 26.2014 44.7495 25.0926 44.7671 23.9838C44.7847 22.709 44.7759 21.433 44.7759 20.1583Z" fill="#F3EBDD"/>
<path d="M23.0763 15.058C23.0763 17.9503 23.08 20.8438 23.0876 23.7386C23.0876 25.9499 23.0976 27.6898 23.0976 29.6811C23.0976 30.2921 23.0976 30.9282 23.0976 31.6083C23.0976 31.734 23.0976 31.8396 23.0976 31.9364C23.0976 32.0622 23.0976 32.1615 23.0838 32.2507C23.0585 32.3748 22.9947 32.4878 22.9015 32.5736C22.8083 32.6594 22.6904 32.7135 22.5646 32.7284H22.4276C22.2787 32.7129 22.1408 32.6428 22.0405 32.5316C21.9402 32.4204 21.8846 32.276 21.8845 32.1263V14.3314H17.042V32.1728C17.042 35.3056 19.3149 37.5785 22.4477 37.5785C25.6195 37.5785 27.92 35.3056 27.92 32.1728V14.3314H23.0763V15.058Z" fill="#D62500"/>
<path d="M39.9558 19.0809C39.7184 17.9383 39.1483 16.8914 38.3172 16.072C37.4862 15.2526 36.4314 14.6973 35.2856 14.476V27.0172C35.2859 27.0932 35.271 27.1685 35.2416 27.2385C35.2125 27.3171 35.1666 27.3883 35.107 27.4472C34.9937 27.5606 34.84 27.6244 34.6796 27.6244C34.5842 27.6246 34.4902 27.6018 34.4056 27.5578C34.3212 27.5152 34.2481 27.4532 34.1921 27.377C34.1362 27.3007 34.0991 27.2124 34.0837 27.1191C34.0776 27.0855 34.0747 27.0514 34.0749 27.0172V14.3314H33.8549H29.2412V37.5785H34.09V31.7378C37.6012 31.6297 40.1243 29.0299 40.1243 25.4772V20.5958C40.1243 20.0861 40.0678 19.5781 39.9558 19.0809Z" fill="#D62500"/>
<path d="M5.42725 19.7233V24.5671C7.33346 24.5687 9.20176 24.0347 10.8191 23.0258V37.5785H15.6616V14.3314H10.8242C10.8225 15.7618 10.2532 17.133 9.2413 18.144C8.2294 19.155 6.85762 19.723 5.42725 19.7233Z" fill="#D62500"/>
<path d="M23.0763 11.1031C23.0763 13.9962 23.08 16.8897 23.0876 19.7837C23.0876 21.995 23.0976 23.7349 23.0976 25.7262C23.0976 26.3371 23.0976 26.9733 23.0976 27.6534C23.0976 27.7791 23.0976 27.8847 23.0976 27.9815C23.0976 28.1072 23.0976 28.2065 23.0838 28.2958C23.0585 28.4199 22.9947 28.5329 22.9015 28.6186C22.8083 28.7044 22.6904 28.7586 22.5646 28.7735H22.4276C22.2787 28.7579 22.1408 28.6878 22.0405 28.5766C21.9402 28.4654 21.8846 28.321 21.8845 28.1713V10.3764H17.042V28.2178C17.042 31.3506 19.3149 33.6235 22.4477 33.6235C25.6195 33.6235 27.92 31.3506 27.92 28.2178V10.3764H23.0763V11.1031Z" fill="#FC8831"/>
<path d="M33.8549 10.3764H29.2412V33.6235H34.09V27.7829C37.6012 27.6747 40.1243 25.075 40.1243 21.5223V16.6408C40.1243 13.0114 37.4843 10.3764 33.8549 10.3764ZM34.0749 11.1433C34.0753 11.0234 34.1114 10.9062 34.1786 10.8068C34.2457 10.7074 34.3409 10.6303 34.4521 10.5851C34.5248 10.5543 34.6031 10.5385 34.6821 10.5386C34.8059 10.5392 34.9265 10.5777 35.0276 10.649C35.1288 10.7202 35.2056 10.8208 35.2478 10.9371C35.2725 11.0031 35.2853 11.0729 35.2856 11.1433V23.0623C35.2859 23.1382 35.271 23.2135 35.2416 23.2835C35.2125 23.3621 35.1666 23.4333 35.107 23.4922C34.9937 23.6056 34.84 23.6694 34.6796 23.6695C34.5842 23.6697 34.4902 23.6468 34.4056 23.6029C34.3058 23.5521 34.2221 23.4748 34.1638 23.3793C34.1054 23.2839 34.0746 23.1741 34.0749 23.0623V11.1433Z" fill="#FC8831"/>
<path d="M5.42725 15.7683V20.6171C7.33565 20.6182 9.20587 20.0824 10.8242 19.0709V33.6235H15.6667V10.3764H10.8242C10.8225 11.8068 10.2532 13.1781 9.2413 14.189C8.2294 15.2 6.85762 15.768 5.42725 15.7683Z" fill="#FC8831"/>
<path d="M23.0763 7.14811C23.0763 10.0412 23.08 12.9347 23.0876 15.8287C23.0876 18.04 23.0976 19.7799 23.0976 21.7712C23.0976 22.3822 23.0976 23.0183 23.0976 23.6984C23.0976 23.8241 23.0976 23.9297 23.0976 24.0265C23.0976 24.1522 23.0976 24.2515 23.0838 24.3408C23.0582 24.4647 22.9943 24.5775 22.9011 24.6632C22.808 24.7489 22.6903 24.8032 22.5646 24.8185H22.4276C22.2787 24.803 22.1408 24.7328 22.0405 24.6217C21.9402 24.5105 21.8846 24.3661 21.8845 24.2163V6.42148H17.042V24.2628C17.042 27.3956 19.3149 29.6686 22.4477 29.6686C25.6195 29.6686 27.92 27.3956 27.92 24.2628V6.42148H23.0763V7.14811Z" fill="#FDAC00"/>
<path d="M33.8549 6.42148H29.2412V29.6686H34.09V23.8279C34.4939 23.815 34.8959 23.7679 35.2918 23.6871C36.4379 23.4656 37.4928 22.9102 38.3238 22.0905C39.1549 21.2709 39.7249 20.2238 39.9621 19.0809C40.0716 18.5856 40.126 18.0796 40.1243 17.5723V12.6858C40.1243 9.05142 37.4843 6.42148 33.8549 6.42148ZM35.2856 19.1086C35.2859 19.1845 35.271 19.2598 35.2416 19.3298C35.2125 19.4084 35.1666 19.4796 35.107 19.5385C35.0223 19.6232 34.9144 19.6808 34.7969 19.704C34.6794 19.7272 34.5576 19.715 34.4471 19.669C34.3365 19.6229 34.2421 19.5451 34.1759 19.4453C34.1096 19.3455 34.0745 19.2283 34.0749 19.1086V11.1433C34.0753 11.0234 34.1114 10.9062 34.1786 10.8068C34.2457 10.7074 34.3409 10.6303 34.4521 10.5851C34.5248 10.5543 34.6031 10.5385 34.6821 10.5386C34.8059 10.5392 34.9265 10.5777 35.0276 10.649C35.1288 10.7202 35.2056 10.8208 35.2478 10.9371C35.2725 11.0031 35.2853 11.0729 35.2856 11.1433V19.1086Z" fill="#FDAC00"/>
<path d="M5.42725 11.8171V16.6571C7.33346 16.6588 9.20176 16.1247 10.8191 15.1159V29.6686H15.6616V6.42148H10.8242C10.8235 7.85251 10.2546 9.22472 9.24263 10.2365C8.23062 11.2483 6.85828 11.8168 5.42725 11.8171Z" fill="#FDAC00"/>
<path d="M47.1581 37.5785C48.4953 37.5785 49.5793 36.4945 49.5793 35.1573C49.5793 33.82 48.4953 32.736 47.1581 32.736C45.8209 32.736 44.7368 33.82 44.7368 35.1573C44.7368 36.4945 45.8209 37.5785 47.1581 37.5785Z" fill="#F3EBDD"/>
<path d="M50.0093 31.1105V12.8895C50.0093 9.09542 52.775 6.45291 56.5389 6.45291C59.7107 6.45291 62.2916 8.44297 62.8824 11.6147C62.9598 12.1812 62.9909 12.753 62.9755 13.3245V14.911H58.3115C58.3115 13.3559 58.8143 11.1169 56.5389 11.1169C55.3572 11.1169 54.6733 11.6763 54.6733 12.8895V31.1105C54.6733 32.2608 55.2956 32.8831 56.4458 32.8831C57.9066 32.8831 58.3429 32.1678 58.3429 30.8616C58.3429 30.2406 58.3115 29.6183 58.3115 28.996H56.041V24.332H62.9755V31.1105C62.9755 34.9046 60.2097 37.5471 56.4458 37.5471C52.7146 37.5471 50.0093 34.8417 50.0093 31.1105Z" fill="#F3EBDD"/>
<path d="M71.4451 6.45291C75.1776 6.45291 77.8817 9.15828 77.8817 12.8895V37.5471H73.2177V28.4114H69.5795V37.5534H64.9155V12.8895C64.9155 9.09542 67.6838 6.45291 71.4451 6.45291ZM73.2177 23.7411V15.444C73.2177 14.5426 73.405 12.6456 73.0316 11.8989C72.7211 11.308 72.036 11.1219 71.4451 11.1219C69.6424 11.1219 69.5494 12.2106 69.5494 13.6714C69.5494 17.0305 69.5494 20.3883 69.5795 23.7462L73.2177 23.7411Z" fill="#F3EBDD"/>
<path d="M86.4349 6.45291C88.0214 6.45291 89.452 6.95577 90.5395 7.82068C91.6596 6.95074 93.0902 6.45291 94.7069 6.45291C98.4695 6.45291 101.175 9.15828 101.175 12.8895V37.5471H96.5096V15.439C96.5096 14.5376 96.6655 12.6406 96.2921 11.8938C96.013 11.303 95.3279 11.1169 94.7069 11.1169C93.3693 11.1169 92.9959 11.7078 92.8715 12.6406V37.5471H88.1773V12.8895C88.1702 12.8045 88.1804 12.7189 88.2074 12.6381C88.0528 11.5808 87.555 11.1144 86.4349 11.1144C84.6321 11.1144 84.5391 12.2031 84.5391 13.6639C84.5391 21.6241 84.5693 29.5843 84.5693 37.5496H79.9053V12.8895C79.9053 9.09542 82.6735 6.45291 86.4349 6.45291Z" fill="#F3EBDD"/>
<path d="M103.233 6.45291H113.867V11.1169H107.897V23.7411H112.159V28.4114H107.897V32.8894H113.867V37.5534H103.233V6.45291Z" fill="#F3EBDD"/>
<path d="M115.636 28.7169V27.3479H120.3C120.3 28.8099 119.895 32.9145 122.104 32.9145C123.472 32.9145 123.938 31.0175 123.938 29.9288C123.938 27.0059 122.725 25.5137 120.642 23.6167C119.895 22.9014 119.118 22.2175 118.434 21.4406C116.569 19.326 115.636 16.901 115.636 14.0712C115.636 10.2155 117.906 6.42148 122.134 6.42148C125.369 6.42148 127.638 8.90936 128.384 11.8636C128.602 12.765 128.636 13.6664 128.636 14.569V16.6521H123.976C123.976 15.2831 124.255 12.2672 122.98 11.3972C122.729 11.2414 122.452 11.0855 122.14 11.0855C120.679 11.0855 120.306 12.9209 120.306 14.0712C120.306 16.901 121.612 18.1443 123.575 19.9798C126.685 22.841 128.612 25.3855 128.612 29.93C128.612 32.7599 127.369 35.7129 124.695 36.9575C123.89 37.3493 123.009 37.5617 122.114 37.5798C118.845 37.5798 116.64 35.1849 115.895 32.174C115.604 31.0175 115.636 29.8672 115.636 28.7169Z" fill="#F3EBDD"/>
</g>
<defs>
<clipPath id="clip0_1239_28633">
<rect width="127.858" height="44" fill="white" transform="translate(0.775879)"/>
</clipPath>
</defs>
</svg>
