<svg width="164" height="101" viewBox="0 0 164 101" fill="none" xmlns="http://www.w3.org/2000/svg">
<g clip-path="url(#clip0_1768_46203)">
<path d="M23.8865 28.35L18.5731 29.3444V44.109L10.6155 45.6022V30.8209L7.95796 31.3248L2.64453 32.3175V47.0988L5.30041 46.5949V49.5512L7.95796 49.0473V52.0036L10.6155 51.4997V60.3668L18.5731 58.8752V50.0215L21.2306 49.5176V46.5613L23.8865 46.0574V43.1163L26.5441 42.6124V27.8478L23.8865 28.35Z" fill="#FDAC00"/>
<path d="M18.5728 44.1224L10.6152 45.614V42.6644L15.9287 41.67L18.5728 44.1224Z" fill="#EC6C0D"/>
<path d="M7.95757 28.387L0 29.8819L2.65756 32.341L7.95757 31.3332L10.6151 30.8292L7.95757 28.387Z" fill="#EC6C0D"/>
<path d="M23.8863 25.3937L15.9287 26.8853L18.5728 29.3443L23.8863 28.35L26.5438 27.846L23.8863 25.3937Z" fill="#EC6C0D"/>
<path d="M18.5728 29.3444V44.1258L15.9287 41.665V26.8837L18.5728 29.3444Z" fill="#D62500"/>
<path d="M0 29.8818V44.6632L2.65756 47.1105V32.3409L0 29.8818Z" fill="#D62500"/>
<path d="M2.65723 47.1056L5.3131 46.6101V49.5647L2.65723 47.1056Z" fill="#D62500"/>
<path d="M5.31348 49.5647L7.95761 49.0608V52.0171L5.31348 49.5647Z" fill="#D62500"/>
<path d="M7.95801 52.0237V57.9362L10.6156 60.3936V51.5265L7.95801 52.0237Z" fill="#D62500"/>
<path d="M38.5416 31.2794L54.4701 28.2828V22.3702L51.8125 22.8741L30.584 26.8584V56.4027L54.4701 51.9162V46.0037L51.8125 46.5076L38.5416 49.007V43.0894L51.8125 40.59V34.6774L49.1567 35.1813L38.5416 37.1835V31.2794Z" fill="#FDAC00"/>
<path d="M27.9258 24.4128V53.9588L30.5833 56.4179V26.8551L27.9258 24.4128Z" fill="#D62500"/>
<path d="M49.1696 32.2318L38.541 34.234V37.1903L49.1696 35.1881L51.812 34.6842L49.1696 32.2318Z" fill="#EC6C0D"/>
<path d="M51.812 43.5597L38.541 46.0574V49.0137L51.812 46.5143L54.4696 46.0104L51.812 43.5597Z" fill="#EC6C0D"/>
<path d="M51.8119 19.9247L27.9258 24.4128L30.5833 26.8585L51.8119 22.8675L54.4695 22.3636L51.8119 19.9247Z" fill="#EC6C0D"/>
<path d="M120.105 15.9572L136.034 12.9606V7.03967L133.376 7.54358L112.147 11.5413V41.0872L136.034 36.5991V30.6882L133.376 31.1921L120.105 33.6898V27.7722L133.381 25.2728V19.3603L130.725 19.8642L120.11 21.8664L120.105 15.9572Z" fill="#FDAC00"/>
<path d="M109.49 9.08215V38.6332L112.148 41.0922V11.5412L109.49 9.08215Z" fill="#D62500"/>
<path d="M130.721 16.9163L120.105 18.9033V21.8596L130.721 19.8709L133.376 19.3669L130.721 16.9163Z" fill="#EC6C0D"/>
<path d="M133.381 28.2291L120.11 30.7268V33.6831L133.381 31.1837L136.039 30.6798L133.381 28.2291Z" fill="#EC6C0D"/>
<path d="M133.381 4.5957L109.49 9.08219L112.148 11.5413L133.381 7.5587L136.039 7.05479L133.381 4.5957Z" fill="#EC6C0D"/>
<path d="M106.242 12.8716L98.2847 14.3632L95.6288 14.8671L85.0137 16.8693V22.7801L90.3137 21.7723L92.9712 21.2684V44.9018L100.929 43.4102V19.7768L108.886 18.2853V12.3744L106.242 12.8716Z" fill="#FDAC00"/>
<path d="M106.242 9.91028L95.6315 11.9041L92.9739 12.408L82.3555 14.4035L84.9979 16.8626L95.6315 14.8604L98.274 14.3565L106.245 12.8649L108.902 12.361L106.242 9.91028Z" fill="#EC6C0D"/>
<path d="M82.3555 14.4034V20.3143L84.9979 22.7734V16.8625L82.3555 14.4034Z" fill="#D62500"/>
<path d="M90.3135 21.7656V42.4579L92.971 44.9153V21.2684L90.3135 21.7656Z" fill="#D62500"/>
<path d="M161.343 20.18V17.2254L164 16.7215V4.90476L161.343 5.40867V2.44568L158.687 2.94959L140.114 6.44337V35.9809L148.072 34.4894V25.6222L150.729 25.1183V28.0746L153.385 27.5707V30.5269L155.68 30.0969L156.029 30.0297V32.9843L163.987 31.4928V28.555L161.329 29.0589V26.1026L158.674 26.6065V23.6334L156.016 24.1374V21.1811L161.343 20.18ZM148.072 16.7685V10.8559L153.385 9.86156L156.043 9.35765V15.2853L148.072 16.7685Z" fill="#FDAC00"/>
<path d="M156.031 9.36438V15.2853L153.385 12.8178V9.86157L156.031 9.36438Z" fill="#D62500"/>
<path d="M137.456 3.99097V33.5352L140.114 35.9943V6.45005L137.456 3.99097Z" fill="#D62500"/>
<path d="M150.729 28.0947V25.1384L148.071 25.6423L150.729 28.0947Z" fill="#D62500"/>
<path d="M153.371 30.5538V27.5975L150.729 28.1014L153.371 30.5538Z" fill="#D62500"/>
<path d="M156.031 32.9978V30.0432L153.373 30.5471L156.031 32.9978Z" fill="#D62500"/>
<path d="M156.031 15.2852L148.073 16.7768V13.8121L153.387 12.8177L156.031 15.2852Z" fill="#EC6C0D"/>
<path d="M158.685 0L137.456 3.99097L140.114 6.44838L158.685 2.95628L161.342 2.45237L158.685 0Z" fill="#EC6C0D"/>
<path d="M164 4.91819L161.343 5.4221V2.45911L164 4.91819Z" fill="#EC6C0D"/>
<path d="M158.687 23.6334L156.029 24.1373V21.1877L158.687 23.6334Z" fill="#EC6C0D"/>
<path d="M161.342 26.0925L158.685 26.5964V23.6334L161.342 26.0925Z" fill="#EC6C0D"/>
<path d="M164 28.5549L161.343 29.0588V26.1025L164 28.5549Z" fill="#EC6C0D"/>
<path d="M17.888 90.746L11.7021 91.9218V100.782L20.559 99.1159V90.2488L17.888 90.746Z" fill="#FDAC00"/>
<path d="M17.8881 87.7897L9.03125 89.4694L11.7022 91.915L17.8881 90.7392L20.5591 90.2353L17.8881 87.7897Z" fill="#EC6C0D"/>
<path d="M9.03125 89.4694V98.3231L11.7022 100.782V91.915L9.03125 89.4694Z" fill="#D62500"/>
<path d="M120.414 56.8462L136.342 53.8513V47.9387L133.686 48.4426L112.456 52.4403V81.9863L136.342 77.4981V71.5856L133.686 72.0895L120.414 74.5788V68.6713L133.686 66.1803V60.2677L131.029 60.7716L120.414 62.7739V56.8613V56.8462Z" fill="#FDAC00"/>
<path d="M109.799 49.9812V79.5272L112.456 81.9862V52.4403L109.799 49.9812Z" fill="#D62500"/>
<path d="M131.043 57.8137L120.414 59.7974V62.7537L131.043 60.765L133.687 60.261L131.043 57.8137Z" fill="#EC6C0D"/>
<path d="M133.687 69.1265L120.414 71.6259V74.5788L133.687 72.0794L136.343 71.5755L133.687 69.1265Z" fill="#EC6C0D"/>
<path d="M133.687 45.493L109.799 49.9812L112.456 52.4403L133.687 48.4493L136.342 47.9454L133.687 45.493Z" fill="#EC6C0D"/>
<path d="M158.685 52.8434L164 51.849V45.9365L161.343 46.4404V43.4841L158.685 43.988L142.756 46.9829V49.9392L140.101 50.4431V62.2666L142.756 61.7627V64.7189L145.414 64.215L153.372 62.7234L156.029 62.2195V68.1321L148.072 69.6237V66.6674L145.414 67.1713L140.101 68.1657V74.0749L142.756 73.571V76.5272L161.329 73.0334V70.0772L163.987 69.5733V57.7616L161.329 58.2571V55.3025L158.673 55.8064L148.058 57.807V51.8894L153.372 50.895L156.031 50.3911V53.3473L158.685 52.8434Z" fill="#FDAC00"/>
<path d="M156.031 68.1069L148.073 69.6186V66.6624L153.387 65.6545L156.031 68.1069Z" fill="#EC6C0D"/>
<path d="M142.756 49.914L140.114 50.418L137.456 47.9589L140.114 47.455L142.756 49.914Z" fill="#EC6C0D"/>
<path d="M164 45.9231L161.343 46.4354V43.4791L164 45.9231Z" fill="#EC6C0D"/>
<path d="M161.343 43.4791L158.687 41.02L140.114 44.5121L142.758 46.9712L158.687 43.9763L161.343 43.4791Z" fill="#EC6C0D"/>
<path d="M164 57.7481L161.343 58.2437V55.2891L164 57.7481Z" fill="#EC6C0D"/>
<path d="M158.686 52.8568L156.029 53.3607L148.071 54.8725V57.827L158.686 55.8265L161.342 55.3025L158.686 52.8568Z" fill="#EC6C0D"/>
<path d="M145.414 64.1965L142.756 64.7004L137.456 65.6948L140.114 68.1539L145.414 67.1595L148.071 66.6556L145.414 64.1965Z" fill="#EC6C0D"/>
<path d="M156.031 62.1943V68.1069L153.387 65.6478V62.6915L156.031 62.1943Z" fill="#D62500"/>
<path d="M142.758 46.9712V49.914L140.114 47.4684V44.5121L142.758 46.9712Z" fill="#D62500"/>
<path d="M137.456 65.6881V71.599L140.114 74.0581V68.1455L137.456 65.6881Z" fill="#D62500"/>
<path d="M142.758 76.5172V73.5609L140.114 74.0648L142.758 76.5172Z" fill="#D62500"/>
<path d="M137.456 47.9656V59.7756L140.114 62.2346V50.4247L137.456 47.9656Z" fill="#D62500"/>
<path d="M142.758 64.6937V61.7374L140.114 62.2413L142.758 64.6937Z" fill="#D62500"/>
<path d="M156.031 53.3407V50.3911L153.387 50.895L156.031 53.3407Z" fill="#D62500"/>
<path d="M45.049 73.9641L47.7066 73.4602L50.3624 72.9562V67.0588L47.7066 67.5627V64.6064L45.049 65.1104L29.1204 68.1069V71.0515L26.4629 71.5554V95.1804L29.1204 94.6765V97.6328L47.7066 94.1407V91.1844L50.3624 90.6805V75.8991L47.7066 76.403L37.0914 78.4052V84.3211L39.749 83.8172L42.4049 83.3217V89.2326L34.4473 90.7241V72.9966L42.4049 71.505L45.0624 71.0011V73.9573L45.049 73.9641Z" fill="#FDAC00"/>
<path d="M42.3921 89.2409L34.4346 90.7527V87.7964L39.7363 86.7886L42.3921 89.2409Z" fill="#EC6C0D"/>
<path d="M47.7072 73.4668L45.0497 73.9707L34.4346 75.9729L37.0787 78.4253L47.7072 76.4264L50.3497 75.9225H50.3631L47.7072 73.4668Z" fill="#EC6C0D"/>
<path d="M29.1208 71.0513L26.4632 71.5469L23.8057 69.1029L26.4632 68.5906L29.1208 71.0513Z" fill="#EC6C0D"/>
<path d="M45.049 62.1489L26.4629 65.6427L29.1204 68.0883L45.049 65.1052L47.7066 64.6013L45.049 62.1489Z" fill="#EC6C0D"/>
<path d="M50.3495 67.0588L47.707 67.5543V64.6132L50.3495 67.0588Z" fill="#EC6C0D"/>
<path d="M42.3912 83.3301V89.2409L39.7354 86.7819V83.8256L42.3912 83.3301Z" fill="#D62500"/>
<path d="M29.1204 68.0935V71.0514L26.4629 68.5923V65.6478L29.1204 68.0935Z" fill="#D62500"/>
<path d="M34.4346 75.9662V81.8771L37.0787 84.321V78.4253L34.4346 75.9662Z" fill="#D62500"/>
<path d="M23.8057 69.1013V92.733L26.4632 95.1921V71.5453L23.8057 69.1013Z" fill="#D62500"/>
<path d="M29.1204 97.6512V94.6949L26.4629 95.1989L29.1204 97.6512Z" fill="#D62500"/>
<path d="M45.0492 73.964V71.0077L42.3916 71.5116L45.0492 73.964Z" fill="#D62500"/>
<path d="M76.1157 65.4328V62.485L73.4582 62.9889V60.0326L70.8006 60.5365L60.1872 62.5387V65.495L57.5296 65.9989V68.9552L54.8721 69.4591V93.0555L62.8296 91.564V82.6985L68.1447 81.7024L70.8006 81.1985V90.0657L78.7599 88.5741V64.9222L76.1157 65.4328ZM62.8431 76.7859V70.8734L65.5006 70.3695V67.4216L68.1582 66.9177V69.8756L70.814 69.3717V75.2843L62.8431 76.7859Z" fill="#FDAC00"/>
<path d="M57.547 68.9132L54.8894 69.4171L52.2285 66.9647L54.8861 66.4608L57.547 68.9132Z" fill="#EC6C0D"/>
<path d="M60.2008 65.4597L57.5433 65.9636L54.8857 63.5045L57.5433 63.0006L60.2008 65.4597Z" fill="#EC6C0D"/>
<path d="M70.8147 75.2943L62.8438 76.7859V73.8296L68.1589 72.8352L70.8147 75.2943Z" fill="#EC6C0D"/>
<path d="M70.8145 57.5601L57.5469 60.0578L60.2044 62.5034L70.8179 60.5147L73.4754 60.0107L70.8145 57.5601Z" fill="#EC6C0D"/>
<path d="M76.1158 62.485L73.4717 62.9889V60.0326L76.1158 62.485Z" fill="#EC6C0D"/>
<path d="M78.7721 64.9221L76.1162 65.426V62.4849L78.7721 64.9221Z" fill="#EC6C0D"/>
<path d="M57.5472 65.9703V68.9132L54.8896 66.4675V63.5112L57.5472 65.9703Z" fill="#D62500"/>
<path d="M60.2011 62.5034V65.4597L57.5469 63.014V60.0577L60.2011 62.5034Z" fill="#D62500"/>
<path d="M70.8141 69.3818V75.2944L68.1582 72.8353V69.8757L70.8141 69.3818Z" fill="#D62500"/>
<path d="M52.2285 66.9647V90.5981L54.8861 93.0555V69.4238L52.2285 66.9647Z" fill="#D62500"/>
<path d="M68.1582 81.689V87.6016L70.8141 90.0606V81.1935L68.1582 81.689Z" fill="#D62500"/>
<path d="M68.1585 66.9243V69.8756L65.501 67.4165L68.1585 66.9243Z" fill="#D62500"/>
<path d="M104.765 53.9722L99.4517 54.9649V57.9211L96.7959 58.4251V61.3813L94.1383 61.8852V58.929L91.4808 59.4329V56.4766L88.8232 56.9805L83.5098 57.9497V87.4957L91.4673 86.0007V74.179L94.1249 73.6751V76.6313L96.7824 76.1274V73.1846L99.4383 72.6807V84.5041L107.396 83.0125V53.475L104.765 53.9722Z" fill="#FDAC00"/>
<path d="M96.806 61.3746L94.1484 61.8785V58.9222L96.806 61.3746Z" fill="#EC6C0D"/>
<path d="M99.4524 57.9228L96.8099 58.4267L94.1523 55.9677L96.8065 55.4637L99.4524 57.9228Z" fill="#EC6C0D"/>
<path d="M88.8381 54.0125L80.8789 55.504L83.5365 57.9614L88.8381 56.9536L91.494 56.4497L88.8381 54.0125Z" fill="#EC6C0D"/>
<path d="M91.4941 56.4564V59.4127L94.1517 58.9172L91.4941 56.4564Z" fill="#EC6C0D"/>
<path d="M104.765 51.0159L96.8057 52.5074L99.4498 54.9665L104.763 53.9721L107.421 53.4682L104.765 51.0159Z" fill="#EC6C0D"/>
<path d="M96.806 58.4183V61.3746L94.1484 58.9172V55.9609L96.806 58.4183Z" fill="#D62500"/>
<path d="M99.4515 54.9665V57.9228L96.8057 55.4637V52.5074L99.4515 54.9665Z" fill="#D62500"/>
<path d="M80.8789 55.504V85.0483L83.5365 87.5124V57.9614L80.8789 55.504Z" fill="#D62500"/>
<path d="M91.4941 74.1924L94.1517 73.6885V76.6448L91.4941 74.1924Z" fill="#D62500"/>
<path d="M96.8057 73.198V82.0517L99.4498 84.5108V72.6874L96.8057 73.198Z" fill="#D62500"/>
<path d="M76.8272 27.2616L82.1406 26.2672V20.3546L79.483 20.8585V17.8972L76.8272 18.4011L60.902 21.3893V24.3456L58.2461 24.8495V36.6729L60.902 36.169V39.1253L63.5595 38.6214L71.5171 37.1298L74.1746 36.6259V42.5384L66.2171 44.03V41.0737L63.5595 41.5777L58.2461 42.5704V48.4829L60.902 47.979V50.9353L79.4747 47.4415V44.5003L82.1322 43.9964V32.1713L79.4747 32.6752V29.7206L76.8188 30.2246L66.2037 32.2251V26.3075L71.5171 25.3131L74.1746 24.8092V27.7655L76.8272 27.2616Z" fill="#FDAC00"/>
<path d="M74.1695 42.5384L66.2119 44.0283V41.0737L71.5119 40.0793L74.1695 42.5384Z" fill="#EC6C0D"/>
<path d="M60.9025 24.3456L58.2601 24.8495L55.6025 22.3904L58.2601 21.8865L60.9025 24.3456Z" fill="#EC6C0D"/>
<path d="M82.141 20.3546L79.4834 20.8585V17.8972L82.141 20.3546Z" fill="#EC6C0D"/>
<path d="M79.4834 17.8972L76.8276 15.4381L58.2549 18.9319L60.9024 21.3893L76.8309 18.3944L79.4834 17.8972Z" fill="#EC6C0D"/>
<path d="M82.141 32.1781L79.4834 32.682V29.7207L82.141 32.1781Z" fill="#EC6C0D"/>
<path d="M76.827 27.2885L74.1695 27.7924L66.2119 29.2839V32.2385L76.827 30.2514L79.4829 29.7274L76.827 27.2885Z" fill="#EC6C0D"/>
<path d="M63.5552 38.6146L60.8977 39.1185V39.1051L55.5977 40.1129L58.2552 42.572L63.5552 41.5642L66.2128 41.0603L63.5552 38.6146Z" fill="#EC6C0D"/>
<path d="M74.1702 36.6259V42.5367L71.5127 40.0793V37.1214L74.1702 36.6259Z" fill="#D62500"/>
<path d="M60.9024 21.3893V24.3456L58.2549 21.8865V18.9319L60.9024 21.3893Z" fill="#D62500"/>
<path d="M55.5977 40.1196V46.0238L58.2552 48.4694V42.5787L55.5977 40.1196Z" fill="#D62500"/>
<path d="M60.9019 50.9353V47.979L58.2578 48.4829L60.9019 50.9353Z" fill="#D62500"/>
<path d="M55.5977 22.3837V34.2071L58.2552 36.6662V24.8428L55.5977 22.3837Z" fill="#D62500"/>
<path d="M60.9019 39.1119V36.1691L58.2578 36.673L60.9019 39.1119Z" fill="#D62500"/>
<path d="M74.1702 27.7588V24.8025L71.5127 25.3064L74.1702 27.7588Z" fill="#D62500"/>
</g>
<defs>
<clipPath id="clip0_1768_46203">
<rect width="164" height="100.782" fill="white"/>
</clipPath>
</defs>
</svg>
