<svg width="14" height="14" viewBox="0 0 14 14" fill="none" xmlns="http://www.w3.org/2000/svg">
<g clip-path="url(#clip0_1501_10784)">
<path d="M0.583008 11.6665L0.583008 8.1665L4.08301 8.1665" stroke="#F3EBDD" stroke-linecap="round" stroke-linejoin="round"/>
<path d="M13.417 2.3335L13.417 5.8335L9.91699 5.8335" stroke="#F3EBDD" stroke-linecap="round" stroke-linejoin="round"/>
<path d="M11.9528 8.74991C11.657 9.58596 11.1542 10.3334 10.4913 10.9226C9.82844 11.5117 9.02714 11.9234 8.16216 12.1191C7.29718 12.3148 6.39672 12.2882 5.5448 12.0418C4.69288 11.7954 3.91726 11.3372 3.29033 10.7099L0.58366 8.16658M13.417 5.83325L10.7103 3.28991C10.0834 2.66266 9.30778 2.20445 8.45585 1.95803C7.60393 1.71161 6.70347 1.68502 5.83849 1.88073C4.97351 2.07644 4.17221 2.48808 3.50935 3.07724C2.84649 3.6664 2.34367 4.41387 2.04783 5.24991" stroke="#F3EBDD" stroke-linecap="round" stroke-linejoin="round"/>
</g>
<defs>
<clipPath id="clip0_1501_10784">
<rect width="14" height="14" fill="white" transform="translate(14 14) rotate(-180)"/>
</clipPath>
</defs>
</svg>
