<?xml version="1.0" encoding="utf-8"?>
<svg viewBox="129.736 169.254 44.002 44.002" width="44.002" height="44.002" xmlns="http://www.w3.org/2000/svg">
  <path d="M44.7759 20.1583C44.7759 18.798 44.7168 17.4391 44.6137 16.0826C44.526 14.8551 44.3648 13.6339 44.131 12.4256C43.7903 10.7108 43.2698 9.05645 42.4212 7.52273C41.0208 4.99965 38.993 3.15291 36.3895 1.94353C35.1975 1.4037 33.9489 0.998491 32.6671 0.73542C31.8273 0.551877 30.9687 0.419877 30.1113 0.315534C29.5921 0.252677 29.0717 0.217477 28.5512 0.173477C25.8144 -0.0553228 23.0726 -8.46316e-06 20.3295 0.0138201C19.5752 0.0138201 18.8134 0.0527915 18.0553 0.100563C17.2281 0.15462 16.4009 0.226277 15.5762 0.31302C13.8162 0.514163 12.0763 0.852334 10.4018 1.46331C7.89885 2.37599 5.80319 3.85188 4.19279 5.98902C3.23299 7.28623 2.5025 8.73828 2.03302 10.2822C1.64589 11.5485 1.36995 12.8462 1.20834 14.1604C1.00242 15.8224 0.887434 17.4944 0.863879 19.1689C0.855079 19.5624 0.836222 19.9571 0.818622 20.3494C0.809976 20.427 0.795691 20.5039 0.775879 20.5794V23.4155C0.796462 23.505 0.811575 23.5957 0.821136 23.6871C0.852565 24.5394 0.871422 25.3905 0.915422 26.2416C0.956907 27.0424 1.01725 27.8407 1.08011 28.6402C1.15237 29.5102 1.26944 30.3758 1.43085 31.2337C1.76902 33.0742 2.30205 34.8493 3.21474 36.4923C4.69188 39.1487 6.85039 41.0445 9.64502 42.2249C10.8172 42.7164 12.0397 43.0777 13.2907 43.3023C13.9939 43.4288 14.6996 43.5395 15.4078 43.6342C15.9245 43.7033 16.4462 43.7347 16.9666 43.7787C18.3646 43.8956 19.7663 43.9233 21.1693 43.9648C21.2467 43.971 21.3236 43.9827 21.3993 44H24.2367C24.3267 43.9818 24.4179 43.9692 24.5095 43.9623C25.2537 43.9397 25.9979 43.9283 26.7422 43.8969C27.3569 43.8718 27.9704 43.8278 28.5851 43.7825C29.1257 43.741 29.6701 43.7083 30.2069 43.6354C31.0001 43.5261 31.7909 43.4066 32.5766 43.2583C33.8976 43.0088 35.1835 42.5998 36.4058 42.0401C39.6669 40.524 41.9234 38.07 43.2246 34.7248C43.6982 33.4809 44.042 32.1913 44.2504 30.8767C44.4541 29.6964 44.5876 28.505 44.6502 27.3089C44.7017 26.2014 44.7495 25.0926 44.7671 23.9838C44.7847 22.709 44.7759 21.433 44.7759 20.1583Z" fill="#F3EBDD" transform="matrix(1, 0, 0, 1, 128.959671, 169.256195)"/>
  <path d="M 151.909 184.164 C 151.909 187.056 151.913 189.95 151.92 192.845 C 151.92 195.056 151.93 196.796 151.93 198.787 C 151.93 199.398 151.93 200.034 151.93 200.714 C 151.93 200.84 151.93 200.946 151.93 201.042 C 151.93 201.168 151.93 201.267 151.916 201.357 C 151.891 201.481 151.827 201.594 151.734 201.68 C 151.641 201.765 151.523 201.819 151.397 201.834 L 151.26 201.834 C 151.111 201.819 150.973 201.749 150.873 201.638 C 150.773 201.526 150.717 201.382 150.717 201.232 L 150.717 183.437 L 145.875 183.437 L 145.875 201.279 C 145.875 204.412 148.147 206.684 151.28 206.684 C 154.452 206.684 156.753 204.412 156.753 201.279 L 156.753 183.437 L 151.909 183.437 L 151.909 184.164 Z" fill="#D62500"/>
  <path d="M 168.788 188.187 C 168.551 187.044 167.981 185.997 167.15 185.178 C 166.319 184.359 165.264 183.803 164.118 183.582 L 164.118 196.123 C 164.118 196.199 164.104 196.274 164.074 196.344 C 164.045 196.423 163.999 196.494 163.94 196.553 C 163.826 196.667 163.673 196.73 163.512 196.73 C 163.417 196.731 163.323 196.708 163.238 196.664 C 163.154 196.621 163.081 196.559 163.025 196.483 C 162.969 196.407 162.932 196.318 162.916 196.225 C 162.91 196.191 162.907 196.157 162.907 196.123 L 162.907 183.437 L 162.687 183.437 L 158.074 183.437 L 158.074 206.684 L 162.923 206.684 L 162.923 200.844 C 166.434 200.736 168.957 198.136 168.957 194.583 L 168.957 189.702 C 168.957 189.192 168.9 188.684 168.788 188.187 Z" fill="#D62500"/>
  <path d="M 134.26 188.829 L 134.26 193.673 C 136.166 193.675 138.034 193.141 139.652 192.132 L 139.652 206.684 L 144.494 206.684 L 144.494 183.437 L 139.657 183.437 C 139.655 184.868 139.086 186.239 138.074 187.25 C 137.062 188.261 135.69 188.829 134.26 188.829 Z" fill="#D62500"/>
  <path d="M 151.909 180.209 C 151.909 183.102 151.913 185.996 151.92 188.89 C 151.92 191.101 151.93 192.841 151.93 194.832 C 151.93 195.443 151.93 196.079 151.93 196.759 C 151.93 196.885 151.93 196.991 151.93 197.087 C 151.93 197.213 151.93 197.312 151.916 197.402 C 151.891 197.526 151.827 197.639 151.734 197.725 C 151.641 197.81 151.523 197.865 151.397 197.879 L 151.26 197.879 C 151.111 197.864 150.973 197.794 150.873 197.683 C 150.773 197.571 150.717 197.427 150.717 197.277 L 150.717 179.482 L 145.875 179.482 L 145.875 197.324 C 145.875 200.457 148.147 202.729 151.28 202.729 C 154.452 202.729 156.753 200.457 156.753 197.324 L 156.753 179.482 L 151.909 179.482 L 151.909 180.209 Z" fill="#FC8831"/>
  <path d="M 162.687 179.482 L 158.074 179.482 L 158.074 202.729 L 162.923 202.729 L 162.923 196.889 C 166.434 196.781 168.957 194.181 168.957 190.628 L 168.957 185.747 C 168.957 182.117 166.317 179.482 162.687 179.482 Z M 162.907 180.249 C 162.908 180.129 162.944 180.012 163.011 179.913 C 163.078 179.813 163.173 179.736 163.285 179.691 C 163.357 179.66 163.436 179.644 163.515 179.645 C 163.638 179.645 163.759 179.684 163.86 179.755 C 163.961 179.826 164.038 179.927 164.08 180.043 C 164.105 180.109 164.118 180.179 164.118 180.249 L 164.118 192.168 C 164.118 192.244 164.104 192.319 164.074 192.389 C 164.045 192.468 163.999 192.539 163.94 192.598 C 163.826 192.712 163.673 192.775 163.512 192.775 C 163.417 192.776 163.323 192.753 163.238 192.709 C 163.138 192.658 163.055 192.581 162.996 192.485 C 162.938 192.39 162.907 192.28 162.907 192.168 L 162.907 180.249 Z" fill="#FC8831"/>
  <path d="M 134.26 184.874 L 134.26 189.723 C 136.168 189.724 138.038 189.188 139.657 188.177 L 139.657 202.729 L 144.499 202.729 L 144.499 179.482 L 139.657 179.482 C 139.655 180.913 139.086 182.284 138.074 183.295 C 137.062 184.306 135.69 184.874 134.26 184.874 Z" fill="#FC8831"/>
  <path d="M 151.909 176.254 C 151.909 179.147 151.913 182.041 151.92 184.935 C 151.92 187.146 151.93 188.886 151.93 190.877 C 151.93 191.488 151.93 192.124 151.93 192.804 C 151.93 192.93 151.93 193.036 151.93 193.132 C 151.93 193.258 151.93 193.357 151.916 193.447 C 151.891 193.571 151.827 193.683 151.734 193.769 C 151.641 193.855 151.523 193.909 151.397 193.924 L 151.26 193.924 C 151.111 193.909 150.973 193.839 150.873 193.728 C 150.773 193.616 150.717 193.472 150.717 193.322 L 150.717 175.527 L 145.875 175.527 L 145.875 193.369 C 145.875 196.502 148.147 198.775 151.28 198.775 C 154.452 198.775 156.753 196.502 156.753 193.369 L 156.753 175.527 L 151.909 175.527 L 151.909 176.254 Z" fill="#FDAC00"/>
  <path d="M 162.687 175.527 L 158.074 175.527 L 158.074 198.775 L 162.923 198.775 L 162.923 192.934 C 163.326 192.921 163.728 192.874 164.124 192.793 C 165.27 192.572 166.325 192.016 167.156 191.196 C 167.987 190.377 168.557 189.33 168.795 188.187 C 168.904 187.692 168.959 187.186 168.957 186.678 L 168.957 181.792 C 168.957 178.157 166.317 175.527 162.687 175.527 Z M 164.118 188.215 C 164.118 188.29 164.104 188.366 164.074 188.436 C 164.045 188.514 163.999 188.586 163.94 188.644 C 163.855 188.729 163.747 188.787 163.629 188.81 C 163.512 188.833 163.39 188.821 163.28 188.775 C 163.169 188.729 163.075 188.651 163.008 188.551 C 162.942 188.451 162.907 188.334 162.907 188.215 L 162.907 180.249 C 162.908 180.129 162.944 180.012 163.011 179.913 C 163.078 179.813 163.173 179.736 163.285 179.691 C 163.357 179.66 163.436 179.644 163.515 179.645 C 163.638 179.645 163.759 179.684 163.86 179.755 C 163.961 179.826 164.038 179.927 164.08 180.043 C 164.105 180.109 164.118 180.179 164.118 180.249 L 164.118 188.215 Z" fill="#FDAC00"/>
  <path d="M 134.26 180.923 L 134.26 185.763 C 136.166 185.765 138.034 185.231 139.652 184.222 L 139.652 198.775 L 144.494 198.775 L 144.494 175.527 L 139.657 175.527 C 139.656 176.958 139.087 178.331 138.075 179.342 C 137.063 180.354 135.691 180.923 134.26 180.923 Z" fill="#FDAC00"/>
</svg>