<svg id="Artwork" xmlns="http://www.w3.org/2000/svg" viewBox="0 0 320 320"><defs><style>.cls-1{fill:#373737;}.cls-2{fill:#f3bfb0;}.cls-3{fill:#eba596;}.cls-4{fill:#8670e9;}.cls-5{fill:#f5f1d4;}.cls-6{fill:#856f56;}.cls-7{fill:#695037;}</style></defs><polygon class="cls-1" points="184 168 176 168 168 168 160 168 152 168 144 168 136 168 128 168 120 168 112 168 104 168 104 176 104 184 104 192 104 200 112 200 112 192 112 184 112 176 120 176 128 176 136 176 144 176 152 176 160 176 168 176 176 176 184 176 192 176 200 176 208 176 208 184 208 192 208 200 216 200 216 192 216 184 216 176 216 168 208 168 200 168 192 168 184 168"/><polygon class="cls-1" points="192 200 184 200 176 200 168 200 160 200 152 200 144 200 136 200 128 200 120 200 112 200 112 208 120 208 128 208 136 208 144 208 152 208 160 208 168 208 176 208 184 208 192 208 200 208 208 208 208 200 200 200 192 200"/><polygon class="cls-1" points="88 96 96 96 96 88 104 88 104 80 112 80 112 72 120 72 120 64 112 64 104 64 104 72 96 72 96 80 88 80 88 88 80 88 80 96 80 104 88 104 88 96"/><polygon class="cls-1" points="256 168 256 176 256 184 256 192 256 200 256 208 264 208 264 200 264 192 264 184 264 176 264 168 256 168"/><polygon class="cls-1" points="240 208 240 200 240 192 240 184 240 176 240 168 248 168 256 168 256 160 248 160 248 152 248 144 248 136 248 128 248 120 248 112 248 104 240 104 240 112 240 120 240 128 240 136 240 144 240 152 240 160 232 160 232 152 224 152 216 152 208 152 200 152 200 160 208 160 216 160 224 160 224 168 232 168 232 176 232 184 232 192 232 200 232 208 232 216 224 216 224 224 216 224 216 232 208 232 208 240 200 240 200 248 192 248 184 248 184 256 176 256 168 256 160 256 152 256 144 256 136 256 136 248 128 248 120 248 120 240 112 240 112 232 104 232 104 224 96 224 96 216 88 216 88 208 88 200 88 192 88 184 88 176 88 168 88 160 96 160 104 160 112 160 120 160 128 160 136 160 144 160 152 160 160 160 160 152 152 152 144 152 136 152 128 152 120 152 112 152 104 152 96 152 88 152 80 152 80 144 80 136 80 128 80 120 80 112 80 104 72 104 72 112 72 120 72 128 72 136 72 144 72 152 72 160 64 160 64 168 72 168 80 168 80 176 80 184 80 192 80 200 80 208 72 208 64 208 64 216 72 216 80 216 80 224 88 224 88 232 96 232 96 240 104 240 104 248 112 248 112 256 120 256 128 256 128 264 136 264 144 264 152 264 160 264 168 264 176 264 184 264 192 264 192 256 200 256 208 256 208 248 216 248 216 240 224 240 224 232 232 232 232 224 240 224 240 216 248 216 256 216 256 208 248 208 240 208"/><polygon class="cls-1" points="208 72 208 80 216 80 216 88 224 88 224 96 232 96 232 104 240 104 240 96 240 88 232 88 232 80 224 80 224 72 216 72 216 64 208 64 200 64 200 72 208 72"/><polygon class="cls-1" points="200 136 200 128 192 128 192 136 192 144 192 152 200 152 200 144 200 136"/><polygon class="cls-1" points="136 64 144 64 152 64 160 64 168 64 176 64 184 64 192 64 200 64 200 56 192 56 184 56 176 56 168 56 160 56 152 56 144 56 136 56 128 56 120 56 120 64 128 64 136 64"/><polygon class="cls-1" points="176 120 184 120 184 128 192 128 192 120 192 112 184 112 176 112 168 112 168 120 168 128 176 128 176 120"/><polygon class="cls-1" points="168 144 168 136 168 128 160 128 160 136 160 144 160 152 168 152 168 144"/><polygon class="cls-1" points="64 192 64 184 64 176 64 168 56 168 56 176 56 184 56 192 56 200 56 208 64 208 64 200 64 192"/><rect class="cls-2" x="208" y="208" width="8" height="8"/><polygon class="cls-2" points="192 216 184 216 176 216 168 216 160 216 152 216 144 216 136 216 128 216 120 216 112 216 112 224 120 224 120 232 128 232 128 240 136 240 144 240 144 248 152 248 160 248 168 248 176 248 176 240 184 240 192 240 192 232 200 232 200 224 208 224 208 216 200 216 192 216"/><rect class="cls-2" x="104" y="208" width="8" height="8"/><polygon class="cls-2" points="176 168 184 168 192 168 200 168 200 160 192 160 192 152 192 144 192 136 184 136 184 128 184 120 176 120 176 128 176 136 168 136 168 144 168 152 168 160 160 160 160 168 168 168 176 168"/><polygon class="cls-2" points="248 176 248 184 248 192 248 200 240 200 240 208 248 208 256 208 256 200 256 192 256 184 256 176 248 176"/><polygon class="cls-2" points="216 176 216 184 216 192 216 200 216 208 224 208 224 200 224 192 224 184 224 176 224 168 216 168 216 176"/><polygon class="cls-2" points="104 192 104 184 104 176 104 168 96 168 96 176 96 184 96 192 96 200 96 208 104 208 104 200 104 192"/><polygon class="cls-2" points="72 192 72 184 72 176 64 176 64 184 64 192 64 200 64 208 72 208 80 208 80 200 72 200 72 192"/><polygon class="cls-3" points="248 168 240 168 240 176 240 184 240 192 240 200 248 200 248 192 248 184 248 176 256 176 256 168 248 168"/><polygon class="cls-3" points="224 176 224 184 224 192 224 200 224 208 216 208 216 216 208 216 208 224 200 224 200 232 192 232 192 240 184 240 176 240 176 248 168 248 160 248 152 248 144 248 144 240 136 240 128 240 128 232 120 232 120 224 112 224 112 216 104 216 104 208 96 208 96 200 96 192 96 184 96 176 96 168 104 168 112 168 120 168 128 168 136 168 144 168 152 168 160 168 160 160 152 160 144 160 136 160 128 160 120 160 112 160 104 160 96 160 88 160 88 168 88 176 88 184 88 192 88 200 88 208 88 216 96 216 96 224 104 224 104 232 112 232 112 240 120 240 120 248 128 248 136 248 136 256 144 256 152 256 160 256 168 256 176 256 184 256 184 248 192 248 200 248 200 240 208 240 208 232 216 232 216 224 224 224 224 216 232 216 232 208 232 200 232 192 232 184 232 176 232 168 224 168 224 176"/><polygon class="cls-3" points="216 160 208 160 200 160 200 168 208 168 216 168 224 168 224 160 216 160"/><rect class="cls-3" x="208" y="200" width="8" height="8"/><rect class="cls-3" x="192" y="152" width="8" height="8"/><rect class="cls-3" x="184" y="128" width="8" height="8"/><rect class="cls-3" x="168" y="128" width="8" height="8"/><rect class="cls-3" x="160" y="152" width="8" height="8"/><polygon class="cls-3" points="120 216 128 216 136 216 144 216 152 216 160 216 168 216 176 216 184 216 192 216 200 216 208 216 208 208 200 208 192 208 184 208 176 208 168 208 160 208 152 208 144 208 136 208 128 208 120 208 112 208 112 216 120 216"/><rect class="cls-3" x="104" y="200" width="8" height="8"/><polygon class="cls-3" points="64 168 64 176 72 176 72 184 72 192 72 200 80 200 80 192 80 184 80 176 80 168 72 168 64 168"/><path class="cls-4" d="M200,176H112v24h96V176Zm0,16H168v-8h32Z"/><polygon class="cls-5" points="192 184 184 184 176 184 168 184 168 192 176 192 184 192 192 192 200 192 200 184 192 184"/><rect class="cls-6" x="232" y="104" width="8" height="8"/><rect class="cls-6" x="216" y="136" width="8" height="8"/><rect class="cls-6" x="208" y="144" width="8" height="8"/><polygon class="cls-6" points="216 80 208 80 208 72 200 72 200 64 192 64 184 64 176 64 168 64 160 64 152 64 144 64 136 64 128 64 120 64 120 72 112 72 112 80 104 80 104 88 96 88 96 96 88 96 88 104 96 104 96 112 88 112 88 120 96 120 104 120 104 128 112 128 112 136 120 136 120 144 128 144 128 152 136 152 136 144 136 136 144 136 144 144 152 144 160 144 160 136 160 128 168 128 168 120 168 112 176 112 184 112 192 112 192 120 192 128 200 128 200 136 208 136 216 136 216 128 224 128 224 120 224 112 224 104 224 96 224 88 216 88 216 80"/><rect class="cls-6" x="96" y="128" width="8" height="8"/><rect class="cls-6" x="80" y="120" width="8" height="8"/><rect class="cls-6" x="80" y="104" width="8" height="8"/><polygon class="cls-7" points="232 112 232 104 232 96 224 96 224 104 224 112 224 120 224 128 216 128 216 136 224 136 224 144 216 144 216 152 224 152 232 152 232 160 240 160 240 152 240 144 240 136 240 128 240 120 240 112 232 112"/><polygon class="cls-7" points="208 136 200 136 200 144 200 152 208 152 208 144 216 144 216 136 208 136"/><polygon class="cls-7" points="144 144 144 136 136 136 136 144 136 152 144 152 152 152 160 152 160 144 152 144 144 144"/><polygon class="cls-7" points="120 136 112 136 112 128 104 128 104 136 96 136 96 128 104 128 104 120 96 120 88 120 88 128 80 128 80 136 80 144 80 152 88 152 96 152 104 152 112 152 120 152 128 152 128 144 120 144 120 136"/><rect class="cls-7" x="88" y="104" width="8" height="8"/><rect class="cls-7" x="80" y="112" width="8" height="8"/></svg>