<svg id="Artwork" xmlns="http://www.w3.org/2000/svg" viewBox="0 0 320 320"><defs><style>.cls-1{fill:#373737;}.cls-2{fill:#f3bfb0;}.cls-3{fill:#eba596;}.cls-4{fill:#f5c29a;}.cls-5{fill:#e3b08d;}.cls-6{fill:#016cce;}</style></defs><rect class="cls-1" x="200" y="144" width="8" height="8"/><polygon class="cls-1" points="168 120 168 128 176 128 176 136 184 136 184 144 192 144 200 144 200 136 192 136 192 128 184 128 184 120 176 120 176 112 168 112 160 112 160 120 168 120"/><polygon class="cls-1" points="144 104 144 112 152 112 160 112 160 104 152 104 152 96 144 96 136 96 136 104 144 104"/><rect class="cls-1" x="120" y="64" width="8" height="8"/><rect class="cls-1" x="112" y="72" width="8" height="8"/><polygon class="cls-1" points="280 176 280 184 280 192 280 200 280 208 280 216 280 224 280 232 288 232 288 224 288 216 288 208 288 200 288 192 288 184 288 176 280 176"/><rect class="cls-1" x="272" y="232" width="8" height="8"/><polygon class="cls-1" points="272 168 272 176 280 176 280 168 280 160 280 152 272 152 272 160 272 168"/><polygon class="cls-1" points="136 56 144 56 152 56 160 56 168 56 176 56 184 56 192 56 200 56 208 56 208 64 216 64 216 72 224 72 224 80 232 80 232 88 240 88 240 96 248 96 248 104 248 112 256 112 256 120 256 128 264 128 264 136 264 144 264 152 272 152 272 144 272 136 272 128 272 120 264 120 264 112 264 104 256 104 256 96 256 88 248 88 248 80 240 80 240 72 232 72 232 64 224 64 224 56 216 56 216 48 208 48 200 48 192 48 184 48 176 48 168 48 160 48 152 48 144 48 136 48 128 48 120 48 120 56 128 56 136 56"/><polygon class="cls-1" points="256 240 248 240 248 248 240 248 240 256 248 256 256 256 256 248 264 248 272 248 272 240 264 240 256 240"/><polygon class="cls-1" points="232 240 224 240 224 232 232 232 232 224 240 224 240 216 240 208 240 200 240 192 240 184 248 184 248 192 256 192 256 200 256 208 264 208 264 200 264 192 264 184 256 184 256 176 248 176 240 176 240 168 240 160 232 160 224 160 224 152 216 152 208 152 208 160 216 160 216 168 224 168 232 168 232 176 232 184 232 192 232 200 232 208 232 216 224 216 224 224 216 224 216 232 208 232 208 240 200 240 200 248 192 248 184 248 184 256 176 256 168 256 160 256 152 256 144 256 136 256 136 248 128 248 120 248 120 240 112 240 112 232 104 232 104 224 96 224 96 216 88 216 88 208 88 200 88 192 88 184 88 176 88 168 88 160 96 160 96 152 88 152 88 144 96 144 104 144 104 136 96 136 96 128 104 128 104 120 96 120 96 112 104 112 104 104 112 104 112 96 120 96 128 96 136 96 136 88 128 88 128 80 120 80 120 88 112 88 112 80 104 80 104 88 104 96 96 96 96 104 88 104 88 96 96 96 96 88 96 80 104 80 104 72 112 72 112 64 120 64 120 56 112 56 104 56 104 64 96 64 96 72 88 72 88 80 80 80 80 88 80 96 80 104 80 112 80 120 80 128 80 136 80 144 80 152 80 160 72 160 64 160 64 168 72 168 80 168 80 176 80 184 80 192 80 200 80 208 80 216 80 224 88 224 88 232 96 232 96 240 104 240 104 248 112 248 112 256 120 256 128 256 128 264 136 264 144 264 152 264 160 264 168 264 176 264 184 264 192 264 192 256 200 256 208 256 208 248 216 248 224 248 232 248 240 248 240 240 232 240"/><polygon class="cls-1" points="56 200 56 208 64 208 64 200 64 192 56 192 56 200"/><rect class="cls-1" x="56" y="176" width="8" height="8"/><polygon class="cls-2" points="216 176 216 168 208 168 208 160 200 160 200 152 192 152 184 152 184 144 176 144 176 136 168 136 168 128 160 128 160 120 152 120 144 120 144 112 136 112 136 104 136 96 128 96 120 96 112 96 112 104 104 104 104 112 96 112 96 120 104 120 104 128 96 128 96 136 104 136 104 144 96 144 96 152 96 160 96 168 96 176 96 184 96 192 96 200 96 208 104 208 104 216 112 216 112 224 120 224 120 232 128 232 128 240 136 240 144 240 144 248 152 248 160 248 168 248 176 248 176 240 184 240 192 240 192 232 200 232 200 224 208 224 208 216 216 216 216 208 224 208 224 200 224 192 224 184 224 176 216 176"/><rect class="cls-2" x="72" y="168" width="8" height="8"/><rect class="cls-2" x="64" y="192" width="8" height="8"/><rect class="cls-2" x="64" y="176" width="8" height="8"/><polygon class="cls-3" points="248 192 248 184 240 184 240 192 240 200 248 200 256 200 256 192 248 192"/><polygon class="cls-3" points="216 168 216 176 224 176 224 184 224 192 224 200 224 208 216 208 216 216 208 216 208 224 200 224 200 232 192 232 192 240 184 240 176 240 176 248 168 248 160 248 152 248 144 248 144 240 136 240 128 240 128 232 120 232 120 224 112 224 112 216 104 216 104 208 96 208 96 200 96 192 96 184 96 176 96 168 96 160 88 160 88 168 88 176 88 184 88 192 88 200 88 208 88 216 96 216 96 224 104 224 104 232 112 232 112 240 120 240 120 248 128 248 136 248 136 256 144 256 152 256 160 256 168 256 176 256 184 256 184 248 192 248 200 248 200 240 208 240 208 232 216 232 216 224 224 224 224 216 232 216 232 208 232 200 232 192 232 184 232 176 232 168 224 168 216 168"/><rect class="cls-3" x="208" y="160" width="8" height="8"/><rect class="cls-3" x="200" y="152" width="8" height="8"/><polygon class="cls-3" points="192 144 184 144 184 152 192 152 200 152 200 144 192 144"/><rect class="cls-3" x="176" y="136" width="8" height="8"/><rect class="cls-3" x="168" y="128" width="8" height="8"/><rect class="cls-3" x="160" y="120" width="8" height="8"/><polygon class="cls-3" points="152 112 144 112 144 120 152 120 160 120 160 112 152 112"/><rect class="cls-3" x="136" y="104" width="8" height="8"/><rect class="cls-3" x="88" y="144" width="8" height="8"/><polygon class="cls-3" points="72 184 72 192 72 200 80 200 80 192 80 184 80 176 72 176 72 184"/><rect class="cls-4" x="264" y="192" width="8" height="8"/><rect class="cls-4" x="256" y="176" width="8" height="8"/><polygon class="cls-4" points="256 152 256 160 264 160 264 152 264 144 256 144 256 152"/><rect class="cls-4" x="248" y="128" width="8" height="8"/><polygon class="cls-4" points="256 120 256 112 248 112 248 104 248 96 240 96 240 88 232 88 232 80 224 80 224 72 216 72 216 64 208 64 208 56 200 56 192 56 184 56 176 56 168 56 160 56 152 56 144 56 136 56 128 56 120 56 120 64 128 64 128 72 120 72 120 80 128 80 128 88 136 88 136 96 144 96 152 96 152 104 160 104 160 112 168 112 176 112 176 120 184 120 184 128 192 128 192 136 200 136 200 144 208 144 208 136 208 128 200 128 200 120 208 120 208 128 216 128 216 136 224 136 224 128 224 120 232 120 232 128 232 136 240 136 240 128 248 128 248 120 256 120"/><rect class="cls-4" x="240" y="168" width="8" height="8"/><polygon class="cls-4" points="232 160 240 160 240 152 248 152 248 144 240 144 232 144 232 152 232 160"/><rect class="cls-4" x="224" y="136" width="8" height="8"/><rect class="cls-4" x="208" y="144" width="8" height="8"/><rect class="cls-4" x="112" y="80" width="8" height="8"/><rect class="cls-4" x="112" y="64" width="8" height="8"/><rect class="cls-4" x="104" y="72" width="8" height="8"/><polygon class="cls-4" points="96 88 96 96 104 96 104 88 104 80 96 80 96 88"/><rect class="cls-4" x="88" y="96" width="8" height="8"/><polygon class="cls-5" points="272 176 272 168 272 160 272 152 264 152 264 160 256 160 256 152 256 144 264 144 264 136 264 128 256 128 256 136 248 136 248 128 240 128 240 136 232 136 232 144 240 144 248 144 248 152 240 152 240 160 240 168 248 168 248 176 256 176 264 176 264 184 264 192 272 192 272 200 264 200 264 208 256 208 256 216 256 224 248 224 240 224 232 224 232 232 224 232 224 240 232 240 240 240 240 248 248 248 248 240 256 240 264 240 272 240 272 232 280 232 280 224 280 216 280 208 280 200 280 192 280 184 280 176 272 176"/><rect class="cls-5" x="248" y="120" width="8" height="8"/><polygon class="cls-5" points="232 128 232 120 224 120 224 128 224 136 232 136 232 128"/><polygon class="cls-5" points="224 136 216 136 216 128 208 128 208 136 208 144 216 144 216 152 224 152 224 160 232 160 232 152 232 144 224 144 224 136"/><rect class="cls-5" x="200" y="120" width="8" height="8"/><polygon class="cls-6" points="248 200 240 200 240 208 240 216 240 224 248 224 256 224 256 216 256 208 256 200 248 200"/><polygon class="cls-6" points="64 200 64 208 64 216 64 224 72 224 80 224 80 216 80 208 80 200 72 200 64 200"/><polygon class="cls-6" points="72 192 72 184 64 184 56 184 56 192 64 192 72 192"/><polygon class="cls-6" points="72 176 72 168 64 168 56 168 56 176 64 176 72 176"/></svg>