<svg id="Artwork" xmlns="http://www.w3.org/2000/svg" viewBox="0 0 320 320"><defs><style>.cls-1{fill:#373737;}.cls-2{fill:#f3bfb0;}.cls-3{fill:#fdac00;}.cls-4{fill:#eba596;}.cls-5{fill:#d08f6c;}.cls-6{fill:#f5f1d4;}</style></defs><polygon class="cls-1" points="264 200 264 192 256 192 256 200 256 208 264 208 264 200"/><rect class="cls-1" x="256" y="168" width="8" height="8"/><polygon class="cls-1" points="248 160 240 160 232 160 232 168 232 176 232 184 232 192 232 200 232 208 232 216 224 216 224 224 216 224 216 232 208 232 208 240 200 240 200 248 192 248 184 248 184 256 176 256 168 256 160 256 152 256 144 256 136 256 136 248 128 248 120 248 120 240 112 240 112 232 104 232 104 224 96 224 96 216 88 216 88 208 88 200 88 192 88 184 88 176 88 168 88 160 80 160 72 160 64 160 64 168 72 168 80 168 80 176 80 184 80 192 80 200 80 208 72 208 64 208 64 216 72 216 80 216 80 224 88 224 88 232 96 232 96 240 104 240 104 248 112 248 112 256 120 256 128 256 128 264 136 264 144 264 152 264 160 264 168 264 176 264 184 264 192 264 192 256 200 256 208 256 208 248 216 248 216 240 224 240 224 232 232 232 232 224 240 224 240 216 248 216 256 216 256 208 248 208 240 208 240 200 240 192 240 184 240 176 240 168 248 168 256 168 256 160 248 160"/><polygon class="cls-1" points="224 120 232 120 232 128 232 136 232 144 232 152 240 152 240 144 240 136 240 128 240 120 240 112 232 112 232 104 224 104 224 112 224 120"/><polygon class="cls-1" points="200 80 200 88 208 88 208 96 216 96 216 104 224 104 224 96 224 88 216 88 216 80 208 80 208 72 200 72 192 72 192 80 200 80"/><polygon class="cls-1" points="144 72 152 72 160 72 168 72 176 72 184 72 192 72 192 64 184 64 176 64 168 64 160 64 152 64 144 64 136 64 128 64 128 72 136 72 144 72"/><polygon class="cls-1" points="104 96 112 96 112 88 120 88 120 80 128 80 128 72 120 72 112 72 112 80 104 80 104 88 96 88 96 96 96 104 104 104 104 96"/><polygon class="cls-1" points="88 144 88 136 88 128 88 120 96 120 96 112 96 104 88 104 88 112 80 112 80 120 80 128 80 136 80 144 80 152 88 152 88 144"/><rect class="cls-1" x="56" y="200" width="8" height="8"/><rect class="cls-1" x="56" y="184" width="8" height="8"/><rect class="cls-1" x="56" y="168" width="8" height="8"/><polygon class="cls-2" points="216 176 216 184 208 184 208 192 200 192 192 192 184 192 184 184 176 184 176 176 176 168 168 168 160 168 152 168 144 168 144 176 144 184 136 184 136 192 128 192 120 192 112 192 112 184 104 184 104 176 104 168 96 168 96 176 96 184 96 192 96 200 96 208 104 208 104 216 112 216 112 224 120 224 120 232 128 232 128 240 136 240 144 240 144 248 152 248 160 248 168 248 176 248 176 240 184 240 192 240 192 232 200 232 200 224 208 224 208 216 216 216 216 208 224 208 224 200 224 192 224 184 224 176 224 168 216 168 216 176"/><polygon class="cls-2" points="248 176 248 184 248 192 248 200 240 200 240 208 248 208 256 208 256 200 256 192 256 184 256 176 248 176"/><polygon class="cls-2" points="216 96 208 96 208 88 200 88 200 80 192 80 192 72 184 72 176 72 168 72 160 72 152 72 144 72 136 72 128 72 128 80 120 80 120 88 112 88 112 96 104 96 104 104 96 104 96 112 96 120 96 128 96 136 96 144 104 144 112 144 120 144 128 144 136 144 144 144 152 144 152 152 160 152 168 152 168 144 176 144 184 144 192 144 200 144 208 144 216 144 224 144 224 136 224 128 224 120 224 112 224 104 216 104 216 96"/><polygon class="cls-2" points="64 200 64 208 72 208 80 208 80 200 72 200 64 200"/><rect class="cls-2" x="64" y="184" width="8" height="8"/><polygon class="cls-3" points="256 176 256 184 256 192 264 192 264 184 264 176 256 176"/><polygon class="cls-3" points="56 192 56 200 64 200 72 200 72 192 64 192 56 192"/><polygon class="cls-3" points="56 176 56 184 64 184 72 184 72 176 64 176 56 176"/><polygon class="cls-4" points="248 168 240 168 240 176 240 184 240 192 240 200 248 200 248 192 248 184 248 176 256 176 256 168 248 168"/><polygon class="cls-4" points="224 128 224 136 224 144 224 152 232 152 232 144 232 136 232 128 232 120 224 120 224 128"/><polygon class="cls-4" points="216 160 216 168 224 168 224 176 224 184 224 192 224 200 224 208 216 208 216 216 208 216 208 224 200 224 200 232 192 232 192 240 184 240 176 240 176 248 168 248 160 248 152 248 144 248 144 240 136 240 128 240 128 232 120 232 120 224 112 224 112 216 104 216 104 208 96 208 96 200 96 192 96 184 96 176 96 168 104 168 104 160 96 160 88 160 88 168 88 176 88 184 88 192 88 200 88 208 88 216 96 216 96 224 104 224 104 232 112 232 112 240 120 240 120 248 128 248 136 248 136 256 144 256 152 256 160 256 168 256 176 256 184 256 184 248 192 248 200 248 200 240 208 240 208 232 216 232 216 224 224 224 224 216 232 216 232 208 232 200 232 192 232 184 232 176 232 168 232 160 224 160 216 160"/><rect class="cls-4" x="208" y="176" width="8" height="8"/><polygon class="cls-4" points="192 192 200 192 208 192 208 184 200 184 192 184 184 184 184 192 192 192"/><rect class="cls-4" x="176" y="176" width="8" height="8"/><polygon class="cls-4" points="160 168 168 168 176 168 176 160 168 160 160 160 152 160 144 160 144 168 152 168 160 168"/><rect class="cls-4" x="136" y="176" width="8" height="8"/><polygon class="cls-4" points="120 192 128 192 136 192 136 184 128 184 120 184 112 184 112 192 120 192"/><rect class="cls-4" x="104" y="176" width="8" height="8"/><polygon class="cls-4" points="96 144 96 136 96 128 96 120 88 120 88 128 88 136 88 144 88 152 96 152 96 144"/><polygon class="cls-4" points="64 168 64 176 72 176 72 184 72 192 72 200 80 200 80 192 80 184 80 176 80 168 72 168 64 168"/><path class="cls-5" d="M232,152h-8v-8H168v8H152v-8H96v8H80v8h24v16h8v8h24v-8h8V160h32v16h8v8h24v-8h8V160h24v-8Zm-96,8v8h-8V152h8Zm72,0v8h-8V152h8Z"/><polygon class="cls-6" points="200 152 200 160 200 168 208 168 208 160 208 152 200 152"/><polygon class="cls-6" points="128 160 128 168 136 168 136 160 136 152 128 152 128 160"/></svg>