<svg id="Artwork" xmlns="http://www.w3.org/2000/svg" viewBox="0 0 320 320"><defs><style>.cls-1{fill:#373737;}.cls-2{fill:#fdac00;}.cls-3{fill:#4e4e95;}.cls-4{fill:#8670e9;}.cls-5{fill:#c8fbfb;}.cls-6{fill:#fc8831;}.cls-7{fill:#b37b5e;}.cls-8{fill:#856f56;}</style></defs><polygon class="cls-1" points="96 184 96 176 96 168 96 160 96 152 96 144 96 136 96 128 96 120 104 120 104 112 112 112 120 112 128 112 136 112 144 112 152 112 160 112 168 112 176 112 184 112 192 112 200 112 208 112 216 112 216 120 224 120 224 128 224 136 224 144 224 152 224 160 224 168 224 176 224 184 224 192 224 200 232 200 232 192 232 184 232 176 232 168 232 160 232 152 232 144 232 136 232 128 232 120 232 112 224 112 224 104 216 104 208 104 200 104 192 104 184 104 176 104 168 104 160 104 152 104 144 104 136 104 128 104 120 104 112 104 104 104 96 104 96 112 88 112 88 120 88 128 88 136 88 144 88 152 88 160 88 168 88 176 88 184 88 192 88 200 96 200 96 192 96 184"/><rect class="cls-1" x="216" y="200" width="8" height="8"/><polygon class="cls-1" points="120 216 128 216 136 216 144 216 152 216 160 216 168 216 176 216 184 216 192 216 200 216 208 216 216 216 216 208 208 208 200 208 192 208 184 208 176 208 168 208 160 208 152 208 144 208 136 208 128 208 120 208 112 208 104 208 104 216 112 216 120 216"/><rect class="cls-1" x="96" y="200" width="8" height="8"/><polygon class="cls-1" points="144 80 152 80 160 80 168 80 176 80 184 80 192 80 192 72 184 72 176 72 168 72 168 64 168 56 160 56 160 48 168 48 168 40 168 32 160 32 160 40 152 40 152 48 152 56 152 64 160 64 160 72 152 72 144 72 136 72 128 72 128 80 136 80 144 80"/><polygon class="cls-1" points="248 104 248 112 248 120 248 128 248 136 248 144 248 152 248 160 248 168 248 176 248 184 248 192 248 200 248 208 256 208 256 200 256 192 256 184 256 176 256 168 256 160 256 152 256 144 256 136 256 128 256 120 256 112 256 104 248 104"/><path class="cls-1" d="M240,216H216v8H104v-8H80v-8H72v16H96v8h24v16h80V232h24v-8h24V208h-8Zm-48,24H128v-8h64Z"/><rect class="cls-1" x="240" y="96" width="8" height="8"/><polygon class="cls-1" points="96 96 104 96 112 96 120 96 128 96 136 96 144 96 152 96 160 96 168 96 176 96 184 96 192 96 200 96 208 96 216 96 224 96 232 96 240 96 240 88 232 88 224 88 216 88 208 88 200 88 200 80 192 80 192 88 184 88 176 88 168 88 160 88 152 88 144 88 136 88 128 88 128 80 120 80 120 88 112 88 104 88 96 88 88 88 80 88 80 96 88 96 96 96"/><rect class="cls-1" x="72" y="96" width="8" height="8"/><polygon class="cls-1" points="72 192 72 184 72 176 72 168 72 160 72 152 72 144 72 136 72 128 72 120 72 112 72 104 64 104 64 112 64 120 64 128 64 136 64 144 64 152 64 160 64 168 64 176 64 184 64 192 64 200 64 208 72 208 72 200 72 192"/><polygon class="cls-2" points="240 104 240 96 232 96 224 96 216 96 208 96 200 96 192 96 184 96 176 96 168 96 160 96 152 96 144 96 136 96 128 96 120 96 112 96 104 96 96 96 88 96 80 96 80 104 72 104 72 112 72 120 72 128 72 136 72 144 72 152 72 160 72 168 72 176 80 176 80 168 88 168 88 160 88 152 88 144 88 136 88 128 88 120 88 112 96 112 96 104 104 104 112 104 120 104 128 104 136 104 144 104 152 104 160 104 168 104 176 104 184 104 192 104 200 104 208 104 216 104 224 104 224 112 232 112 232 120 232 128 232 136 232 144 232 152 232 160 240 160 240 168 248 168 248 160 248 152 248 144 248 136 248 128 248 120 248 112 248 104 240 104"/><rect class="cls-2" x="232" y="192" width="8" height="8"/><rect class="cls-2" x="232" y="168" width="8" height="8"/><rect class="cls-2" x="80" y="200" width="8" height="8"/><rect class="cls-2" x="80" y="176" width="8" height="8"/><rect class="cls-2" x="72" y="184" width="8" height="8"/><polygon class="cls-3" points="216 120 216 112 208 112 200 112 192 112 184 112 176 112 168 112 160 112 152 112 144 112 136 112 128 112 120 112 112 112 104 112 104 120 112 120 120 120 128 120 136 120 144 120 152 120 160 120 168 120 176 120 184 120 192 120 200 120 208 120 208 128 216 128 216 136 216 144 216 152 216 160 216 168 216 176 216 184 216 192 216 200 224 200 224 192 224 184 224 176 224 168 224 160 224 152 224 144 224 136 224 128 224 120 216 120"/><path class="cls-4" d="M208,128v-8H96v80h8v8H216V128Zm-96,24h16v8H112Zm72,16v8H136V160h8v8h32v-8h8Zm24-8H192v-8h16Z"/><polygon class="cls-5" points="200 152 192 152 192 160 200 160 208 160 208 152 200 152"/><polygon class="cls-5" points="176 168 168 168 160 168 152 168 144 168 144 160 136 160 136 168 136 176 144 176 152 176 160 176 168 176 176 176 184 176 184 168 184 160 176 160 176 168"/><polygon class="cls-5" points="112 152 112 160 120 160 128 160 128 152 120 152 112 152"/><polygon class="cls-6" points="240 168 240 176 232 176 232 184 232 192 240 192 240 200 232 200 224 200 224 208 216 208 216 216 224 216 232 216 240 216 240 208 248 208 248 200 248 192 248 184 248 176 248 168 240 168"/><rect class="cls-6" x="232" y="160" width="8" height="8"/><polygon class="cls-6" points="200 216 192 216 184 216 176 216 168 216 160 216 152 216 144 216 136 216 128 216 120 216 112 216 104 216 104 224 112 224 120 224 128 224 136 224 144 224 152 224 160 224 168 224 176 224 184 224 192 224 200 224 208 224 216 224 216 216 208 216 200 216"/><polygon class="cls-6" points="96 208 96 200 88 200 88 208 80 208 80 216 88 216 96 216 104 216 104 208 96 208"/><polygon class="cls-6" points="88 200 88 192 88 184 80 184 80 192 72 192 72 200 72 208 80 208 80 200 88 200"/><rect class="cls-6" x="80" y="168" width="8" height="8"/><rect class="cls-6" x="72" y="176" width="8" height="8"/><polygon class="cls-7" points="152 80 144 80 136 80 128 80 128 88 136 88 144 88 152 88 160 88 160 80 152 80"/><polygon class="cls-7" points="144 232 136 232 128 232 128 240 136 240 144 240 152 240 160 240 160 232 152 232 144 232"/><polygon class="cls-8" points="184 80 176 80 168 80 160 80 160 88 168 88 176 88 184 88 192 88 192 80 184 80"/><polygon class="cls-8" points="176 232 168 232 160 232 160 240 168 240 176 240 184 240 192 240 192 232 184 232 176 232"/></svg>