<svg id="Artwork" xmlns="http://www.w3.org/2000/svg" viewBox="0 0 320 320"><defs><style>.cls-1{fill:#373737;}.cls-2{fill:#fc8831;}.cls-3{fill:#e9c0b2;}.cls-4{fill:#e0a899;}.cls-5{fill:#8670e9;}</style></defs><polygon class="cls-1" points="112 72 120 72 128 72 128 64 136 64 136 56 144 56 144 48 152 48 160 48 160 40 152 40 144 40 136 40 136 48 128 48 128 56 120 56 120 64 112 64 104 64 96 64 96 72 104 72 112 72"/><rect class="cls-1" x="88" y="72" width="8" height="8"/><polygon class="cls-1" points="208 88 200 88 200 96 208 96 216 96 216 88 208 88"/><polygon class="cls-1" points="144 88 152 88 160 88 168 88 176 88 184 88 192 88 200 88 200 80 192 80 184 80 176 80 168 80 160 80 152 80 144 80 136 80 128 80 128 88 136 88 144 88"/><polygon class="cls-1" points="120 96 128 96 128 88 120 88 112 88 104 88 104 96 112 96 120 96"/><polygon class="cls-1" points="256 192 256 200 256 208 264 208 264 200 264 192 264 184 256 184 256 192"/><rect class="cls-1" x="256" y="168" width="8" height="8"/><polygon class="cls-1" points="248 160 240 160 240 152 240 144 240 136 240 128 240 120 240 112 240 104 240 96 240 88 232 88 232 80 232 72 224 72 224 64 224 56 216 56 216 48 208 48 208 40 200 40 192 40 184 40 184 48 192 48 200 48 200 56 208 56 208 64 216 64 216 72 216 80 224 80 224 88 224 96 216 96 216 104 224 104 232 104 232 112 224 112 216 112 216 120 224 120 232 120 232 128 224 128 224 136 232 136 232 144 232 152 232 160 232 168 232 176 232 184 232 192 232 200 232 208 232 216 224 216 224 224 216 224 216 232 208 232 208 240 200 240 200 248 192 248 184 248 184 256 176 256 168 256 160 256 152 256 144 256 136 256 136 248 128 248 120 248 120 240 112 240 112 232 104 232 104 224 96 224 96 216 88 216 88 208 88 200 88 192 88 184 88 176 88 168 88 160 88 152 88 144 88 136 96 136 96 128 88 128 88 120 96 120 104 120 104 112 96 112 88 112 88 104 96 104 104 104 104 96 96 96 88 96 88 88 88 80 80 80 80 88 80 96 80 104 80 112 80 120 80 128 80 136 80 144 80 152 80 160 80 168 80 176 80 184 80 192 80 200 80 208 80 216 80 224 88 224 88 232 96 232 96 240 104 240 104 248 112 248 112 256 120 256 128 256 128 264 136 264 144 264 152 264 160 264 168 264 176 264 184 264 192 264 192 256 200 256 208 256 208 248 216 248 216 240 224 240 224 232 232 232 232 224 240 224 240 216 240 208 240 200 240 192 240 184 240 176 240 168 248 168 256 168 256 160 248 160"/><polygon class="cls-1" points="176 40 184 40 184 32 176 32 168 32 160 32 160 40 168 40 176 40"/><rect class="cls-1" x="64" y="160" width="8" height="8"/><polygon class="cls-1" points="56 176 56 184 56 192 56 200 56 208 64 208 64 200 64 192 64 184 64 176 64 168 56 168 56 176"/><polygon class="cls-2" points="216 80 216 72 216 64 208 64 208 56 200 56 200 48 192 48 184 48 184 40 176 40 168 40 160 40 160 48 152 48 144 48 144 56 136 56 136 64 128 64 128 72 120 72 112 72 104 72 96 72 96 80 88 80 88 88 88 96 96 96 104 96 104 88 112 88 120 88 128 88 128 80 136 80 144 80 152 80 160 80 168 80 176 80 184 80 192 80 200 80 200 88 208 88 216 88 216 96 224 96 224 88 224 80 216 80"/><polygon class="cls-3" points="248 168 240 168 240 176 248 176 248 184 248 192 248 200 256 200 256 192 256 184 256 176 256 168 248 168"/><polygon class="cls-3" points="216 112 216 104 216 96 208 96 200 96 200 88 192 88 184 88 176 88 168 88 160 88 152 88 144 88 136 88 128 88 128 96 120 96 112 96 104 96 104 104 104 112 104 120 96 120 96 128 96 136 96 144 96 152 96 160 96 168 96 176 96 184 96 192 96 200 96 208 104 208 104 216 112 216 112 224 120 224 120 232 128 232 128 240 136 240 144 240 144 248 152 248 160 248 168 248 176 248 176 240 184 240 192 240 192 232 200 232 200 224 208 224 208 216 216 216 216 208 224 208 224 200 224 192 224 184 224 176 224 168 224 160 224 152 224 144 224 136 224 128 224 120 216 120 216 112"/><polygon class="cls-3" points="64 168 64 176 64 184 64 192 64 200 72 200 72 192 72 184 72 176 80 176 80 168 72 168 64 168"/><polygon class="cls-4" points="240 176 240 184 240 192 248 192 248 184 248 176 240 176"/><polygon class="cls-4" points="224 144 224 152 224 160 224 168 224 176 224 184 224 192 224 200 224 208 216 208 216 216 208 216 208 224 200 224 200 232 192 232 192 240 184 240 176 240 176 248 168 248 160 248 152 248 144 248 144 240 136 240 128 240 128 232 120 232 120 224 112 224 112 216 104 216 104 208 96 208 96 200 96 192 96 184 96 176 96 168 96 160 96 152 96 144 96 136 88 136 88 144 88 152 88 160 88 168 88 176 88 184 88 192 88 200 88 208 88 216 96 216 96 224 104 224 104 232 112 232 112 240 120 240 120 248 128 248 136 248 136 256 144 256 152 256 160 256 168 256 176 256 184 256 184 248 192 248 200 248 200 240 208 240 208 232 216 232 216 224 224 224 224 216 232 216 232 208 232 200 232 192 232 184 232 176 232 168 232 160 232 152 232 144 232 136 224 136 224 144"/><rect class="cls-4" x="224" y="120" width="8" height="8"/><polygon class="cls-4" points="216 104 216 112 224 112 232 112 232 104 224 104 216 104"/><polygon class="cls-4" points="104 112 104 104 96 104 88 104 88 112 96 112 104 112"/><rect class="cls-4" x="88" y="120" width="8" height="8"/><polygon class="cls-4" points="72 184 72 192 80 192 80 184 80 176 72 176 72 184"/><rect class="cls-5" x="256" y="176" width="8" height="8"/><polygon class="cls-5" points="248 192 240 192 240 200 240 208 240 216 240 224 248 224 248 216 256 216 256 208 256 200 248 200 248 192"/><polygon class="cls-5" points="72 200 64 200 64 208 64 216 72 216 72 224 80 224 80 216 80 208 80 200 80 192 72 192 72 200"/><rect class="cls-5" x="72" y="160" width="8" height="8"/></svg>