<svg id="Artwork" xmlns="http://www.w3.org/2000/svg" viewBox="0 0 320 320"><defs><style>.cls-1{fill:#373737;}.cls-2{fill:#016cce;}.cls-3{fill:#013094;}.cls-4{fill:#f3ebdd;}.cls-5{fill:#e5d8bf;}</style></defs><path class="cls-1" d="M240,128v-8h-8v-8h-8v-8h-8v16h8v8h8v8h8v72h-8v8h-8v8h-8v8h-8v8H112v-8h-8v-8H96v-8H88v-8H80V136h8v-8h8v-8h8V104H96v8H88v8H80v8H72v88h8v8h8v8h8v8h8v8h16v16h80V248h16v-8h8v-8h8v-8h8v-8h8V128ZM192,256H128v-8h64Z"/><polygon class="cls-1" points="208 96 200 96 192 96 192 88 184 88 176 88 176 96 184 96 184 104 192 104 200 104 208 104 216 104 216 96 208 96"/><polygon class="cls-1" points="168 96 168 88 160 88 152 88 152 96 160 96 168 96"/><polygon class="cls-1" points="120 104 128 104 136 104 136 96 144 96 144 88 136 88 128 88 128 96 120 96 112 96 104 96 104 104 112 104 120 104"/><polygon class="cls-2" points="256 152 256 144 248 144 248 152 248 160 248 168 248 176 256 176 256 168 264 168 264 160 264 152 256 152"/><polygon class="cls-2" points="168 96 168 104 168 112 168 120 176 120 176 112 176 104 176 96 176 88 168 88 168 96"/><polygon class="cls-2" points="144 248 136 248 128 248 128 256 136 256 144 256 152 256 160 256 160 248 152 248 144 248"/><polygon class="cls-2" points="152 112 152 104 152 96 152 88 144 88 144 96 144 104 144 112 144 120 152 120 152 112"/><polygon class="cls-2" points="64 152 56 152 56 160 56 168 64 168 64 176 72 176 72 168 72 160 72 152 72 144 64 144 64 152"/><polygon class="cls-3" points="256 168 256 176 248 176 248 184 248 192 248 200 256 200 256 192 264 192 264 184 264 176 264 168 256 168"/><polygon class="cls-3" points="176 248 168 248 160 248 160 256 168 256 176 256 184 256 192 256 192 248 184 248 176 248"/><polygon class="cls-3" points="64 168 56 168 56 176 56 184 56 192 64 192 64 200 72 200 72 192 72 184 72 176 64 176 64 168"/><polygon class="cls-4" points="232 136 232 128 224 128 224 120 216 120 216 112 216 104 208 104 200 104 192 104 184 104 184 96 176 96 176 104 176 112 176 120 176 128 184 128 192 128 192 136 200 136 208 136 208 144 216 144 216 152 224 152 224 160 224 168 224 176 232 176 232 184 240 184 240 176 240 168 232 168 232 160 240 160 240 152 240 144 240 136 232 136"/><rect class="cls-4" x="224" y="184" width="8" height="8"/><rect class="cls-4" x="216" y="192" width="8" height="8"/><rect class="cls-4" x="200" y="216" width="8" height="8"/><rect class="cls-4" x="200" y="200" width="8" height="8"/><polygon class="cls-4" points="200 168 200 160 200 152 192 152 192 160 192 168 192 176 200 176 200 168"/><polygon class="cls-4" points="176 208 176 216 176 224 184 224 184 216 192 216 192 208 184 208 176 208"/><polygon class="cls-4" points="184 160 184 152 176 152 176 160 176 168 184 168 184 160"/><rect class="cls-4" x="152" y="232" width="8" height="8"/><polygon class="cls-4" points="152 216 152 224 160 224 168 224 168 216 160 216 152 216"/><polygon class="cls-4" points="152 96 152 104 152 112 152 120 160 120 168 120 168 112 168 104 168 96 160 96 152 96"/><rect class="cls-4" x="136" y="224" width="8" height="8"/><polygon class="cls-4" points="136 104 128 104 120 104 112 104 104 104 104 112 104 120 96 120 96 128 88 128 88 136 80 136 80 144 80 152 80 160 80 168 80 176 88 176 88 184 88 192 96 192 96 184 96 176 96 168 96 160 96 152 104 152 104 144 112 144 112 136 120 136 128 136 128 128 136 128 144 128 144 120 144 112 144 104 144 96 136 96 136 104"/><polygon class="cls-4" points="128 208 120 208 120 216 128 216 128 224 136 224 136 216 144 216 144 208 136 208 128 208"/><rect class="cls-4" x="120" y="224" width="8" height="8"/><polygon class="cls-4" points="112 200 104 200 104 208 112 208 120 208 120 200 112 200"/><path class="cls-1" d="M216,152v-8h-8v-8H192v-8H176v-8H144v8H128v8H112v8h-8v8H96v40h8v8h16v8h24v8h32v-8h24v-8h16v-8h8V152Zm-16,8v16h-8V152h8Zm-16,0v8h-8V152h8Z"/><path class="cls-5" d="M232,192h-8v8H208v8H192v8h-8v8h-8v-8h-8v8H152v-8H136v8h8v8h-8v-8h-8v8h-8v-8h8v-8h-8v-8H104V192H88V176H80v32h8v8h8v8h8v8h8v8h40v-8h8v8h48v-8h8v-8h8v-8h8v-8h8V184h-8Zm-32,32v-8h8v8Z"/><rect class="cls-5" x="232" y="160" width="8" height="8"/><rect class="cls-5" x="224" y="176" width="8" height="8"/></svg>