<svg id="Artwork" xmlns="http://www.w3.org/2000/svg" viewBox="0 0 320 320"><defs><style>.cls-1{fill:#013094;}.cls-2{fill:#016cce;}.cls-3{fill:#373737;}.cls-4{fill:#212121;}.cls-5{fill:#e0a899;}.cls-6{fill:#c8887d;}</style></defs><polygon class="cls-1" points="264 168 264 160 256 160 256 168 256 176 256 184 256 192 256 200 256 208 264 208 264 200 272 200 272 192 272 184 272 176 272 168 264 168"/><polygon class="cls-1" points="56 168 48 168 48 176 48 184 48 192 48 200 56 200 56 208 64 208 64 200 64 192 64 184 64 176 64 168 64 160 56 160 56 168"/><polygon class="cls-2" points="248 96 248 88 248 80 240 80 240 72 232 72 232 64 224 64 224 56 216 56 208 56 208 48 200 48 192 48 184 48 184 40 176 40 168 40 160 40 152 40 144 40 136 40 136 48 128 48 120 48 112 48 112 56 104 56 96 56 96 64 88 64 88 72 80 72 80 80 72 80 72 88 72 96 64 96 64 104 64 112 64 120 64 128 64 136 64 144 64 152 64 160 64 168 64 176 64 184 64 192 64 200 64 208 64 216 72 216 80 216 80 208 80 200 80 192 80 184 80 176 80 168 80 160 80 152 80 144 80 136 80 128 80 120 80 112 80 104 80 96 88 96 88 88 96 88 96 80 104 80 104 72 112 72 112 64 120 64 128 64 136 64 136 56 144 56 152 56 160 56 168 56 176 56 184 56 184 64 192 64 200 64 208 64 208 72 216 72 216 80 224 80 224 88 232 88 232 96 240 96 240 104 240 112 240 120 240 128 240 136 240 144 240 152 240 160 240 168 240 176 240 184 240 192 240 200 240 208 240 216 248 216 256 216 256 208 256 200 256 192 256 184 256 176 256 168 256 160 256 152 256 144 256 136 256 128 256 120 256 112 256 104 256 96 248 96"/><rect class="cls-3" x="160" y="136" width="8" height="8"/><rect class="cls-3" x="120" y="112" width="8" height="8"/><rect class="cls-3" x="88" y="120" width="8" height="8"/><rect class="cls-3" x="232" y="120" width="8" height="8"/><rect class="cls-3" x="232" y="104" width="8" height="8"/><path class="cls-3" d="M232,88h-8V80h-8V72h-8V64H184V56H136v8H112v8h-8v8H96v8H88v8h8v8H88V96H80v16h24v-8h8v8h8v-8h8v8h8v16h8v8h16V112h24v16h8v-8h8v8h8v-8h8v-8h8v-8h-8V96h8v8h8V88Zm-24,24h-8v-8h8Z"/><rect class="cls-3" x="216" y="136" width="8" height="8"/><rect class="cls-3" x="200" y="136" width="8" height="8"/><rect class="cls-3" x="192" y="128" width="8" height="8"/><polygon class="cls-3" points="224 152 224 160 232 160 232 168 232 176 232 184 232 192 232 200 232 208 232 216 224 216 224 224 216 224 216 232 208 232 208 240 200 240 200 248 192 248 184 248 184 256 176 256 168 256 160 256 152 256 144 256 136 256 136 248 128 248 120 248 120 240 112 240 112 232 104 232 104 224 96 224 96 216 88 216 88 208 88 200 88 192 88 184 88 176 88 168 88 160 80 160 80 168 80 176 80 184 80 192 80 200 80 208 80 216 80 224 88 224 88 232 96 232 96 240 104 240 104 248 112 248 112 256 120 256 128 256 128 264 136 264 144 264 152 264 160 264 168 264 176 264 184 264 192 264 192 256 200 256 208 256 208 248 216 248 216 240 224 240 224 232 232 232 232 224 240 224 240 216 240 208 240 200 240 192 240 184 240 176 240 168 240 160 240 152 232 152 224 152"/><rect class="cls-4" x="232" y="96" width="8" height="8"/><path class="cls-4" d="M224,104v8h-8v8h-8v8h-8v8h8v16h32V128h-8v-8h8v-8h-8v-8Zm-8,40v-8h8v8Z"/><rect class="cls-4" x="216" y="96" width="8" height="8"/><rect class="cls-4" x="200" y="104" width="8" height="8"/><rect class="cls-4" x="192" y="120" width="8" height="8"/><rect class="cls-4" x="176" y="112" width="8" height="8"/><rect class="cls-4" x="120" y="104" width="8" height="8"/><path class="cls-4" d="M112,104h-8v8H80v48H96v-8h8V136h8v-8h8V112h-8ZM88,120h8v8H88Z"/><rect class="cls-4" x="88" y="96" width="8" height="8"/><polygon class="cls-5" points="216 160 208 160 208 152 208 144 200 144 200 136 192 136 192 128 184 128 184 120 176 120 168 120 160 120 160 128 160 136 168 136 168 144 168 152 160 152 160 144 152 144 144 144 144 136 136 136 136 128 136 120 128 120 120 120 120 128 120 136 112 136 112 144 104 144 104 152 104 160 96 160 96 168 96 176 96 184 96 192 96 200 96 208 104 208 104 216 112 216 112 224 120 224 120 232 128 232 128 240 136 240 144 240 144 248 152 248 160 248 168 248 176 248 176 240 184 240 192 240 192 232 200 232 200 224 208 224 208 216 216 216 216 208 224 208 224 200 224 192 224 184 224 176 224 168 224 160 216 160"/><polygon class="cls-6" points="224 160 224 168 224 176 224 184 224 192 224 200 224 208 216 208 216 216 208 216 208 224 200 224 200 232 192 232 192 240 184 240 176 240 176 248 168 248 160 248 152 248 144 248 144 240 136 240 128 240 128 232 120 232 120 224 112 224 112 216 104 216 104 208 96 208 96 200 96 192 96 184 96 176 96 168 96 160 88 160 88 168 88 176 88 184 88 192 88 200 88 208 88 216 96 216 96 224 104 224 104 232 112 232 112 240 120 240 120 248 128 248 136 248 136 256 144 256 152 256 160 256 168 256 176 256 184 256 184 248 192 248 200 248 200 240 208 240 208 232 216 232 216 224 224 224 224 216 232 216 232 208 232 200 232 192 232 184 232 176 232 168 232 160 224 160"/><polygon class="cls-6" points="216 152 208 152 208 160 216 160 224 160 224 152 216 152"/><polygon class="cls-6" points="176 120 176 112 168 112 160 112 160 120 168 120 176 120"/><rect class="cls-6" x="160" y="144" width="8" height="8"/><polygon class="cls-6" points="152 144 160 144 160 136 152 136 144 136 144 144 152 144"/><rect class="cls-6" x="136" y="128" width="8" height="8"/><rect class="cls-6" x="128" y="112" width="8" height="8"/><rect class="cls-6" x="112" y="128" width="8" height="8"/><rect class="cls-6" x="104" y="136" width="8" height="8"/><rect class="cls-6" x="96" y="152" width="8" height="8"/></svg>