<svg id="Artwork" xmlns="http://www.w3.org/2000/svg" viewBox="0 0 320 320"><defs><style>.cls-1{fill:#373737;}.cls-2{fill:#f5f1d4;}.cls-3{fill:#e5d8bf;}</style></defs><polygon class="cls-1" points="216 136 208 136 200 136 192 136 184 136 184 144 176 144 176 152 168 152 168 160 168 168 168 176 176 176 184 176 184 184 192 184 200 184 208 184 208 176 216 176 216 168 216 160 224 160 224 152 224 144 216 144 216 136"/><polygon class="cls-1" points="152 184 152 192 160 192 168 192 168 184 160 184 152 184"/><polygon class="cls-1" points="152 168 152 160 152 152 144 152 144 144 136 144 136 136 128 136 120 136 112 136 104 136 104 144 96 144 96 152 96 160 104 160 104 168 104 176 112 176 112 184 120 184 128 184 136 184 136 176 144 176 152 176 152 168"/><polygon class="cls-1" points="232 112 232 104 224 104 224 112 224 120 232 120 232 128 232 136 232 144 232 152 232 160 232 168 232 176 232 184 240 184 240 176 240 168 240 160 240 152 240 144 240 136 240 128 240 120 240 112 232 112"/><rect class="cls-1" x="224" y="184" width="8" height="8"/><polygon class="cls-1" points="216 200 208 200 208 208 208 216 208 224 208 232 200 232 200 240 192 240 192 232 192 224 192 216 192 208 184 208 184 216 184 224 184 232 184 240 176 240 176 232 176 224 176 216 176 208 168 208 168 216 168 224 168 232 168 240 160 240 152 240 152 232 152 224 152 216 152 208 144 208 144 216 144 224 144 232 144 240 136 240 136 232 136 224 136 216 136 208 128 208 128 216 128 224 128 232 128 240 120 240 120 232 112 232 112 224 112 216 112 208 112 200 104 200 104 192 96 192 96 200 96 208 104 208 104 216 104 224 104 232 104 240 112 240 112 248 120 248 128 248 136 248 144 248 152 248 160 248 168 248 176 248 184 248 192 248 200 248 208 248 208 240 216 240 216 232 216 224 216 216 216 208 224 208 224 200 224 192 216 192 216 200"/><polygon class="cls-1" points="200 80 200 88 208 88 208 96 216 96 216 104 224 104 224 96 224 88 216 88 216 80 208 80 208 72 200 72 192 72 192 80 200 80"/><polygon class="cls-1" points="144 72 152 72 160 72 168 72 176 72 184 72 192 72 192 64 184 64 176 64 168 64 160 64 152 64 144 64 136 64 128 64 128 72 136 72 144 72"/><polygon class="cls-1" points="104 96 112 96 112 88 120 88 120 80 128 80 128 72 120 72 112 72 112 80 104 80 104 88 96 88 96 96 96 104 104 104 104 96"/><rect class="cls-1" x="88" y="184" width="8" height="8"/><polygon class="cls-1" points="88 168 88 160 88 152 88 144 88 136 88 128 88 120 96 120 96 112 96 104 88 104 88 112 80 112 80 120 80 128 80 136 80 144 80 152 80 160 80 168 80 176 80 184 88 184 88 176 88 168"/><path class="cls-2" d="M224,120V104h-8V96h-8V88h-8V80h-8V72H128v8h-8v8h-8v8h-8v8H96v16H88v56h8v8h8v8h8v8h8v8h16v8h8v-8h8v8h8v8h8V208h8v8h8v-8h16v-8h8v-8h8v-8h8v-8h8V120Zm-80,56h-8v8H112v-8h-8V160H96V144h8v-8h32v8h8v8h8v24Zm16,16h-8v-8h16v8Zm64-40v8h-8v16h-8v8H184v-8H168V152h8v-8h8v-8h32v8h8Z"/><rect class="cls-2" x="192" y="216" width="8" height="8"/><rect class="cls-2" x="120" y="216" width="8" height="8"/><rect class="cls-3" x="224" y="176" width="8" height="8"/><rect class="cls-3" x="216" y="184" width="8" height="8"/><rect class="cls-3" x="208" y="192" width="8" height="8"/><polygon class="cls-3" points="200 208 192 208 192 216 200 216 200 224 192 224 192 232 192 240 200 240 200 232 208 232 208 224 208 216 208 208 208 200 200 200 200 208"/><polygon class="cls-3" points="176 224 176 232 176 240 184 240 184 232 184 224 184 216 176 216 176 224"/><polygon class="cls-3" points="160 216 152 216 152 224 152 232 152 240 160 240 168 240 168 232 168 224 160 224 160 216"/><polygon class="cls-3" points="136 224 136 232 136 240 144 240 144 232 144 224 144 216 136 216 136 224"/><polygon class="cls-3" points="120 200 112 200 112 208 112 216 112 224 112 232 120 232 120 240 128 240 128 232 128 224 120 224 120 216 128 216 128 208 120 208 120 200"/><rect class="cls-3" x="104" y="192" width="8" height="8"/><rect class="cls-3" x="96" y="184" width="8" height="8"/><rect class="cls-3" x="88" y="176" width="8" height="8"/></svg>