<svg id="Artwork" xmlns="http://www.w3.org/2000/svg" viewBox="0 0 320 320"><defs><style>.cls-1{fill:#373737;}.cls-2{fill:#e5e5ea;}.cls-3{fill:#c7c7cc;}</style></defs><polygon class="cls-1" points="200 144 200 136 192 136 192 128 184 128 176 128 176 136 176 144 176 152 176 160 184 160 192 160 200 160 208 160 208 152 208 144 200 144"/><polygon class="cls-1" points="128 128 128 136 120 136 120 144 112 144 112 152 112 160 120 160 128 160 136 160 144 160 144 152 144 144 144 136 144 128 136 128 128 128"/><polygon class="cls-1" points="256 248 256 240 248 240 248 248 248 256 240 256 232 256 224 256 216 256 208 256 200 256 192 256 184 256 176 256 168 256 160 256 152 256 144 256 136 256 136 248 128 248 120 248 120 240 112 240 112 232 104 232 104 224 96 224 96 232 96 240 104 240 104 248 112 248 112 256 120 256 128 256 128 264 136 264 144 264 152 264 160 264 168 264 176 264 184 264 192 264 200 264 208 264 216 264 224 264 232 264 240 264 248 264 256 264 264 264 264 256 264 248 256 248"/><polygon class="cls-1" points="240 224 240 232 240 240 248 240 248 232 248 224 248 216 248 208 240 208 240 216 240 224"/><polygon class="cls-1" points="232 136 232 144 232 152 232 160 232 168 232 176 232 184 232 192 232 200 232 208 240 208 240 200 240 192 240 184 240 176 240 168 240 160 240 152 240 144 240 136 240 128 240 120 232 120 232 128 232 136"/><polygon class="cls-1" points="224 120 232 120 232 112 232 104 224 104 224 112 224 120"/><polygon class="cls-1" points="200 80 200 88 208 88 208 96 216 96 216 104 224 104 224 96 224 88 216 88 216 80 208 80 208 72 200 72 192 72 192 80 200 80"/><polygon class="cls-1" points="104 96 112 96 112 88 120 88 120 80 128 80 128 72 136 72 144 72 152 72 160 72 168 72 176 72 184 72 192 72 192 64 184 64 176 64 168 64 160 64 152 64 144 64 136 64 128 64 120 64 120 72 112 72 112 80 104 80 104 88 96 88 96 96 96 104 104 104 104 96"/><polygon class="cls-1" points="96 208 88 208 88 200 88 192 88 184 88 176 88 168 88 160 88 152 88 144 88 136 88 128 88 120 80 120 80 128 80 136 80 144 80 152 80 160 80 168 80 176 80 184 80 192 80 200 80 208 80 216 88 216 88 224 96 224 96 216 96 208"/><polygon class="cls-1" points="96 112 96 104 88 104 88 112 88 120 96 120 96 112"/><path class="cls-2" d="M240,240V208h-8V120h-8V104h-8V96h-8V88h-8V80h-8V72H128v8h-8v8h-8v8h-8v8H96v16H88v56h8v32h8v8h8v8h8v8h8v8h8V224h-8v-8h8v8h8v16h16V216h8v24h8v8h8V224h-8v-8h8v8h8v-8h8v-8h8v8h16v8h8v24h16v-8ZM112,152v-8h8v-8h8v-8h16v32H112Zm96,0v8H176V128h16v8h8v8h8Zm-64,64v-8h8v8Z"/><polygon class="cls-2" points="200 224 192 224 192 232 192 240 192 248 200 248 208 248 208 256 216 256 224 256 224 248 216 248 216 240 216 232 208 232 208 224 208 216 200 216 200 224"/><polygon class="cls-2" points="160 248 160 256 168 256 168 248 168 240 160 240 160 248"/><polygon class="cls-3" points="240 248 232 248 232 240 232 232 232 224 224 224 224 216 216 216 208 216 208 224 208 232 216 232 216 240 216 248 224 248 224 256 232 256 240 256 248 256 248 248 240 248"/><rect class="cls-3" x="200" y="208" width="8" height="8"/><rect class="cls-3" x="192" y="216" width="8" height="8"/><polygon class="cls-3" points="184 232 184 240 184 248 176 248 176 240 168 240 168 248 168 256 176 256 184 256 192 256 200 256 208 256 208 248 200 248 192 248 192 240 192 232 192 224 184 224 184 232"/><rect class="cls-3" x="176" y="216" width="8" height="8"/><polygon class="cls-3" points="168 224 168 216 160 216 160 224 160 232 160 240 168 240 168 232 168 224"/><polygon class="cls-3" points="144 240 144 232 144 224 136 224 136 232 136 240 128 240 128 232 120 232 120 224 112 224 112 216 104 216 104 208 96 208 96 216 96 224 104 224 104 232 112 232 112 240 120 240 120 248 128 248 136 248 136 256 144 256 152 256 160 256 160 248 160 240 152 240 144 240"/><rect class="cls-3" x="144" y="208" width="8" height="8"/><rect class="cls-3" x="128" y="216" width="8" height="8"/><polygon class="cls-3" points="96 192 96 184 96 176 88 176 88 184 88 192 88 200 88 208 96 208 96 200 96 192"/></svg>