<svg id="Artwork" xmlns="http://www.w3.org/2000/svg" viewBox="0 0 320 320"><defs><style>.cls-1{fill:#373737;}.cls-2{fill:#013094;}.cls-3{fill:#016cce;}.cls-4{fill:#f5c29a;}.cls-5{fill:#e3b08d;}</style></defs><polygon class="cls-1" points="80 96 88 96 88 88 96 88 96 80 104 80 104 72 112 72 112 64 120 64 128 64 136 64 136 56 144 56 152 56 160 56 168 56 176 56 184 56 184 64 192 64 200 64 208 64 208 72 216 72 216 80 224 80 224 88 232 88 232 96 240 96 240 104 248 104 248 96 248 88 240 88 240 80 232 80 232 72 224 72 224 64 216 64 216 56 208 56 200 56 192 56 192 48 184 48 176 48 168 48 160 48 152 48 144 48 136 48 128 48 128 56 120 56 112 56 104 56 104 64 96 64 96 72 88 72 88 80 80 80 80 88 72 88 72 96 72 104 80 104 80 96"/><path class="cls-1" d="M272,144v16H56V144H272v-8H256V104h-8v32H72V104H64v32H48v8H40v24H56v40h8V168H80v40H64v8H80v8h8v8h8v8h8v8h8v8h16v8h64v-8h16v-8h8v-8h8v-8h8v-8h8v-8h16v-8H240V168h16v40h8V168h16V144Zm-40,32v40h-8v8h-8v8h-8v8h-8v8H184v8H136v-8H120v-8h-8v-8h-8v-8H96v-8H88V168H232Z"/><polygon class="cls-2" points="264 144 256 144 248 144 248 152 240 152 232 152 224 152 216 152 208 152 208 160 216 160 224 160 232 160 240 160 248 160 256 160 264 160 272 160 272 152 272 144 264 144"/><polygon class="cls-2" points="208 80 208 88 216 88 216 96 224 96 224 104 232 104 232 112 232 120 232 128 232 136 240 136 248 136 248 128 248 120 248 112 248 104 240 104 240 96 232 96 232 88 224 88 224 80 216 80 216 72 208 72 208 64 200 64 192 64 184 64 184 56 176 56 176 64 176 72 184 72 192 72 200 72 200 80 208 80"/><polygon class="cls-3" points="240 144 232 144 224 144 216 144 208 144 200 144 192 144 184 144 176 144 168 144 160 144 152 144 144 144 136 144 128 144 120 144 112 144 104 144 96 144 88 144 80 144 72 144 64 144 56 144 56 152 56 160 64 160 72 160 80 160 88 160 96 160 104 160 112 160 120 160 128 160 136 160 144 160 152 160 160 160 168 160 176 160 184 160 192 160 200 160 208 160 208 152 216 152 224 152 232 152 240 152 248 152 248 144 240 144"/><polygon class="cls-3" points="88 136 96 136 104 136 112 136 120 136 128 136 136 136 144 136 152 136 160 136 168 136 176 136 184 136 192 136 200 136 208 136 216 136 224 136 232 136 232 128 232 120 232 112 232 104 224 104 224 96 216 96 216 88 208 88 208 80 200 80 200 72 192 72 184 72 176 72 176 64 176 56 168 56 160 56 152 56 144 56 136 56 136 64 128 64 120 64 112 64 112 72 104 72 104 80 96 80 96 88 88 88 88 96 80 96 80 104 72 104 72 112 72 120 72 128 72 136 80 136 88 136"/><polygon class="cls-4" points="248 176 248 184 248 192 248 200 240 200 240 208 248 208 256 208 256 200 256 192 256 184 256 176 248 176"/><polygon class="cls-4" points="208 176 200 176 192 176 184 176 176 176 168 176 160 176 152 176 144 176 136 176 128 176 120 176 112 176 104 176 96 176 96 184 96 192 96 200 96 208 104 208 104 216 112 216 112 224 120 224 120 232 128 232 128 240 136 240 144 240 144 248 152 248 160 248 168 248 176 248 176 240 184 240 192 240 192 232 200 232 200 224 208 224 208 216 216 216 216 208 224 208 224 200 224 192 224 184 224 176 216 176 208 176"/><polygon class="cls-4" points="72 192 72 184 72 176 64 176 64 184 64 192 64 200 64 208 72 208 80 208 80 200 72 200 72 192"/><polygon class="cls-5" points="248 168 240 168 240 176 240 184 240 192 240 200 248 200 248 192 248 184 248 176 256 176 256 168 248 168"/><path class="cls-5" d="M216,168H88v48h8v8h8v8h8v8h8v8h16v8h48v-8h16v-8h8v-8h8v-8h8v-8h8V168H216Zm8,16v24h-8v8h-8v8h-8v8h-8v8H176v8H144v-8H128v-8h-8v-8h-8v-8h-8v-8H96V176H224Z"/><polygon class="cls-5" points="64 168 64 176 72 176 72 184 72 192 72 200 80 200 80 192 80 184 80 176 80 168 72 168 64 168"/></svg>