<svg id="Artwork" xmlns="http://www.w3.org/2000/svg" viewBox="0 0 320 320"><defs><style>.cls-1{fill:#373737;}.cls-2{fill:#fdac00;}.cls-3{fill:#fc8831;}.cls-4{fill:#016cce;}.cls-5{fill:#f3ebdd;}</style></defs><polygon class="cls-1" points="264 224 264 232 264 240 264 248 272 248 272 240 272 232 272 224 264 224"/><polygon class="cls-1" points="256 224 264 224 264 216 264 208 256 208 256 216 256 224"/><polygon class="cls-1" points="248 248 240 248 232 248 224 248 216 248 208 248 200 248 192 248 184 248 176 248 168 248 160 248 152 248 144 248 136 248 128 248 120 248 112 248 104 248 96 248 88 248 80 248 72 248 64 248 56 248 56 256 64 256 72 256 80 256 88 256 96 256 104 256 112 256 120 256 128 256 136 256 144 256 152 256 160 256 168 256 176 256 184 256 192 256 200 256 208 256 216 256 224 256 232 256 240 256 248 256 256 256 264 256 264 248 256 248 248 248"/><rect class="cls-1" x="248" y="200" width="8" height="8"/><polygon class="cls-1" points="240 200 248 200 248 192 248 184 240 184 240 192 240 200"/><polygon class="cls-1" points="232 184 240 184 240 176 240 168 232 168 232 176 232 184"/><polygon class="cls-1" points="208 144 216 144 216 136 216 128 208 128 208 136 208 144"/><polygon class="cls-1" points="200 184 200 192 208 192 216 192 216 184 208 184 200 184"/><polygon class="cls-1" points="192 120 200 120 200 128 208 128 208 120 208 112 200 112 200 104 192 104 192 112 192 120"/><polygon class="cls-1" points="184 192 176 192 176 200 184 200 192 200 200 200 200 192 192 192 184 192"/><polygon class="cls-1" points="184 104 192 104 192 96 192 88 184 88 184 96 184 104"/><polygon class="cls-1" points="176 176 168 176 168 184 168 192 176 192 176 184 176 176"/><polygon class="cls-1" points="144 184 144 192 152 192 152 184 152 176 144 176 144 184"/><polygon class="cls-1" points="144 80 152 80 152 72 152 64 160 64 168 64 168 72 168 80 176 80 176 88 184 88 184 80 184 72 176 72 176 64 176 56 168 56 168 48 160 48 152 48 152 56 144 56 144 64 144 72 136 72 136 80 136 88 144 88 144 80"/><polygon class="cls-1" points="128 192 120 192 120 200 128 200 136 200 144 200 144 192 136 192 128 192"/><polygon class="cls-1" points="136 96 136 88 128 88 128 96 128 104 136 104 136 96"/><polygon class="cls-1" points="112 184 104 184 104 192 112 192 120 192 120 184 112 184"/><polygon class="cls-1" points="120 120 128 120 128 112 128 104 120 104 120 112 112 112 112 120 112 128 120 128 120 120"/><polygon class="cls-1" points="112 136 112 128 104 128 104 136 104 144 112 144 112 136"/><polygon class="cls-1" points="96 176 96 184 104 184 104 176 104 168 112 168 120 168 128 168 136 168 144 168 152 168 152 176 160 176 168 176 168 168 176 168 184 168 192 168 200 168 208 168 216 168 216 176 216 184 224 184 224 176 224 168 232 168 232 160 232 152 224 152 224 144 216 144 216 152 216 160 208 160 200 160 192 160 184 160 176 160 168 160 160 160 152 160 144 160 136 160 128 160 120 160 112 160 104 160 104 152 104 144 96 144 96 152 88 152 88 160 88 168 96 168 96 176"/><polygon class="cls-1" points="88 176 88 168 80 168 80 176 80 184 88 184 88 176"/><polygon class="cls-1" points="80 192 80 184 72 184 72 192 72 200 80 200 80 192"/><rect class="cls-1" x="64" y="200" width="8" height="8"/><polygon class="cls-1" points="64 216 64 208 56 208 56 216 56 224 64 224 64 216"/><polygon class="cls-1" points="56 232 56 224 48 224 48 232 48 240 48 248 56 248 56 240 56 232"/><polygon class="cls-2" points="248 232 248 224 248 216 240 216 240 208 232 208 232 200 232 192 224 192 216 192 216 200 208 200 200 200 200 208 192 208 184 208 176 208 176 200 168 200 168 192 168 184 160 184 152 184 152 192 152 200 144 200 144 208 136 208 128 208 120 208 120 200 112 200 104 200 104 192 96 192 96 184 96 176 88 176 88 184 80 184 80 192 80 200 72 200 72 208 64 208 64 216 64 224 56 224 56 232 56 240 64 240 72 240 80 240 88 240 96 240 104 240 112 240 120 240 128 240 136 240 144 240 152 240 160 240 168 240 176 240 184 240 192 240 200 240 208 240 216 240 224 240 232 240 240 240 248 240 256 240 256 232 248 232"/><polygon class="cls-2" points="120 160 128 160 136 160 144 160 152 160 160 160 168 160 176 160 184 160 192 160 200 160 208 160 208 152 208 144 200 144 200 136 192 136 192 128 192 120 184 120 184 112 176 112 176 104 176 96 168 96 168 88 160 88 160 80 160 72 160 64 152 64 152 72 152 80 144 80 144 88 136 88 136 96 136 104 128 104 128 112 128 120 120 120 120 128 112 128 112 136 112 144 104 144 104 152 104 160 112 160 120 160"/><polygon class="cls-3" points="256 224 256 216 256 208 248 208 248 200 240 200 240 192 240 184 232 184 232 176 232 168 224 168 224 176 224 184 216 184 216 192 224 192 232 192 232 200 232 208 240 208 240 216 248 216 248 224 248 232 256 232 256 240 248 240 240 240 232 240 224 240 216 240 208 240 200 240 192 240 184 240 176 240 168 240 160 240 152 240 144 240 136 240 128 240 120 240 112 240 104 240 96 240 88 240 80 240 72 240 64 240 56 240 56 248 64 248 72 248 80 248 88 248 96 248 104 248 112 248 120 248 128 248 136 248 144 248 152 248 160 248 168 248 176 248 184 248 192 248 200 248 208 248 216 248 224 248 232 248 240 248 248 248 256 248 264 248 264 240 264 232 264 224 256 224"/><polygon class="cls-3" points="208 160 216 160 216 152 216 144 208 144 208 152 208 160"/><polygon class="cls-3" points="200 192 200 200 208 200 216 200 216 192 208 192 200 192"/><polygon class="cls-3" points="192 136 200 136 200 144 208 144 208 136 208 128 200 128 200 120 192 120 192 128 192 136"/><polygon class="cls-3" points="184 200 176 200 176 208 184 208 192 208 200 208 200 200 192 200 184 200"/><rect class="cls-3" x="168" y="192" width="8" height="8"/><polygon class="cls-3" points="168 96 176 96 176 104 176 112 184 112 184 120 192 120 192 112 192 104 184 104 184 96 184 88 176 88 176 80 168 80 168 72 168 64 160 64 160 72 160 80 160 88 168 88 168 96"/><polygon class="cls-3" points="168 184 168 176 160 176 152 176 152 184 160 184 168 184"/><rect class="cls-3" x="144" y="192" width="8" height="8"/><polygon class="cls-3" points="128 208 136 208 144 208 144 200 136 200 128 200 120 200 120 208 128 208"/><polygon class="cls-3" points="112 200 120 200 120 192 112 192 104 192 104 200 112 200"/><rect class="cls-3" x="96" y="184" width="8" height="8"/><rect class="cls-3" x="88" y="168" width="8" height="8"/><polygon class="cls-4" points="208 168 208 176 208 184 216 184 216 176 216 168 208 168"/><polygon class="cls-4" points="184 168 176 168 168 168 168 176 176 176 176 184 176 192 184 192 192 192 200 192 200 184 200 176 200 168 192 168 184 168"/><rect class="cls-4" x="144" y="168" width="8" height="8"/><polygon class="cls-4" points="136 176 136 168 128 168 120 168 112 168 104 168 104 176 104 184 112 184 120 184 120 192 128 192 136 192 144 192 144 184 136 184 136 176"/><polygon class="cls-5" points="200 168 200 176 200 184 208 184 208 176 208 168 200 168"/><polygon class="cls-5" points="136 176 136 184 144 184 144 176 144 168 136 168 136 176"/></svg>