<svg id="Artwork" xmlns="http://www.w3.org/2000/svg" viewBox="0 0 320 320"><defs><style>.cls-1{fill:#373737;}.cls-2{fill:#f5f1d4;}.cls-3{fill:#e5d8bf;}</style></defs><polygon class="cls-1" points="256 168 256 176 256 184 256 192 256 200 256 208 264 208 264 200 264 192 264 184 264 176 264 168 256 168"/><path class="cls-1" d="M240,208V168h16v-8H240V72h-8V64H88v8H80v88H64v8H80v40H64v8H80v8h8v8h8v8h8v8h8v8h16v8h64v-8h16v-8h8v-8h8v-8h8v-8h8v-8h16v-8H240Zm-16,8v8h-8v8h-8v8h-8v8H184v8H136v-8H120v-8h-8v-8h-8v-8H96v-8H88V120h8V104h8V96H216v8h8v16h8v96Z"/><polygon class="cls-1" points="64 192 64 184 64 176 64 168 56 168 56 176 56 184 56 192 56 200 56 208 64 208 64 200 64 192"/><polygon class="cls-2" points="248 168 240 168 240 176 248 176 248 184 248 192 248 200 240 200 240 208 248 208 256 208 256 200 256 192 256 184 256 176 256 168 248 168"/><polygon class="cls-2" points="224 200 224 192 216 192 216 200 216 208 224 208 224 200"/><polygon class="cls-2" points="216 96 208 96 200 96 192 96 184 96 176 96 168 96 160 96 152 96 144 96 136 96 128 96 120 96 112 96 104 96 104 104 96 104 96 112 96 120 88 120 88 128 88 136 88 144 88 152 88 160 88 168 88 176 88 184 88 192 88 200 88 208 96 208 104 208 104 200 104 192 96 192 96 184 96 176 96 168 104 168 104 160 104 152 112 152 120 152 120 144 128 144 136 144 144 144 152 144 160 144 168 144 176 144 184 144 192 144 200 144 200 152 208 152 216 152 216 160 216 168 224 168 224 160 224 152 224 144 224 136 224 128 224 120 224 112 224 104 216 104 216 96"/><polygon class="cls-2" points="192 160 184 160 184 168 184 176 184 184 192 184 200 184 200 176 208 176 208 168 200 168 200 160 192 160"/><polygon class="cls-2" points="128 184 136 184 136 176 136 168 136 160 128 160 120 160 120 168 112 168 112 176 120 176 120 184 128 184"/><polygon class="cls-2" points="112 216 112 224 120 224 120 232 128 232 128 240 136 240 144 240 144 248 152 248 160 248 168 248 176 248 176 240 184 240 192 240 192 232 200 232 200 224 208 224 208 216 216 216 216 208 208 208 200 208 192 208 184 208 176 208 176 200 168 200 168 192 168 184 160 184 152 184 152 192 152 200 144 200 144 208 136 208 128 208 120 208 112 208 104 208 104 216 112 216"/><polygon class="cls-2" points="64 168 64 176 64 184 64 192 64 200 64 208 72 208 80 208 80 200 72 200 72 192 72 184 72 176 80 176 80 168 72 168 64 168"/><polygon class="cls-3" points="240 176 240 184 240 192 240 200 248 200 248 192 248 184 248 176 240 176"/><polygon class="cls-3" points="224 128 224 136 224 144 224 152 224 160 224 168 224 176 224 184 216 184 216 192 224 192 224 200 224 208 216 208 216 216 208 216 208 224 200 224 200 232 192 232 192 240 184 240 176 240 176 248 168 248 160 248 152 248 144 248 144 240 136 240 128 240 128 232 120 232 120 224 112 224 112 216 104 216 104 208 96 208 88 208 88 216 96 216 96 224 104 224 104 232 112 232 112 240 120 240 120 248 128 248 136 248 136 256 144 256 152 256 160 256 168 256 176 256 184 256 184 248 192 248 200 248 200 240 208 240 208 232 216 232 216 224 224 224 224 216 232 216 232 208 232 200 232 192 232 184 232 176 232 168 232 160 232 152 232 144 232 136 232 128 232 120 224 120 224 128"/><polygon class="cls-3" points="208 200 200 200 192 200 184 200 176 200 176 208 184 208 192 208 200 208 208 208 216 208 216 200 208 200"/><rect class="cls-3" x="168" y="192" width="8" height="8"/><polygon class="cls-3" points="168 184 168 176 160 176 152 176 152 184 160 184 168 184"/><rect class="cls-3" x="144" y="192" width="8" height="8"/><polygon class="cls-3" points="120 208 128 208 136 208 144 208 144 200 136 200 128 200 120 200 112 200 104 200 104 208 112 208 120 208"/><rect class="cls-3" x="96" y="184" width="8" height="8"/><polygon class="cls-3" points="72 184 72 192 72 200 80 200 80 192 80 184 80 176 72 176 72 184"/><path class="cls-1" d="M216,168V152H200v-8H120v8H104v16H96v16h8v16h40v-8h8V176h16v16h8v8h40V184h8V168Zm-8,0v8h-8v8H184V160h16v8Zm-88,0v-8h16v24H120v-8h-8v-8Z"/></svg>