<svg id="Artwork" xmlns="http://www.w3.org/2000/svg" viewBox="0 0 320 320"><defs><style>.cls-1{fill:#d62500;}.cls-2{fill:#212121;}.cls-3{fill:#373737;}.cls-4{fill:#f7bbb0;}.cls-5{fill:#e0a899;}</style></defs><polygon class="cls-1" points="280 144 280 136 272 136 272 128 264 128 264 120 256 120 256 112 264 112 272 112 272 104 272 96 280 96 280 88 280 80 272 80 272 88 264 88 256 88 256 96 248 96 240 96 240 104 232 104 232 112 224 112 216 112 208 112 200 112 192 112 184 112 176 112 168 112 160 112 152 112 144 112 136 112 128 112 120 112 112 112 104 112 96 112 88 112 80 112 80 120 80 128 80 136 88 136 96 136 104 136 112 136 120 136 128 136 136 136 144 136 152 136 160 136 168 136 176 136 184 136 192 136 200 136 208 136 216 136 224 136 232 136 240 136 248 136 248 144 248 152 256 152 264 152 264 160 272 160 272 152 280 152 288 152 288 144 280 144"/><polygon class="cls-2" points="232 200 232 208 224 208 224 200 216 200 216 208 208 208 208 216 216 216 216 224 208 224 208 232 200 232 200 240 192 240 192 232 184 232 184 240 176 240 168 240 168 248 160 248 160 240 152 240 152 232 144 232 144 240 136 240 128 240 128 232 120 232 120 240 112 240 112 232 120 232 120 224 112 224 112 216 104 216 104 208 96 208 88 208 88 200 80 200 80 208 80 216 80 224 88 224 88 232 96 232 96 240 104 240 104 248 112 248 112 256 120 256 128 256 128 264 136 264 144 264 152 264 160 264 168 264 176 264 184 264 192 264 192 256 200 256 208 256 208 248 216 248 216 240 224 240 224 232 232 232 232 224 240 224 240 216 240 208 240 200 232 200"/><rect class="cls-2" x="200" y="216" width="8" height="8"/><rect class="cls-2" x="160" y="232" width="8" height="8"/><rect class="cls-2" x="128" y="224" width="8" height="8"/><rect class="cls-2" x="88" y="192" width="8" height="8"/><rect class="cls-3" x="208" y="216" width="8" height="8"/><rect class="cls-3" x="160" y="240" width="8" height="8"/><rect class="cls-3" x="112" y="232" width="8" height="8"/><path class="cls-3" d="M232,136H80v64h8v-8h8v8H88v8h16v8h8v8h8v8h8v-8h8v8h-8v8h16v-8h8v8h8v-8h8v8h16v-8h8v8h8v-8h8v-8h-8v-8h8v-8h8v-8h8v8h8v-8h8V136ZM112,184V152h96v40h-8v8H120v-8h-8Z"/><polygon class="cls-3" points="104 112 112 112 120 112 128 112 136 112 144 112 152 112 160 112 168 112 176 112 184 112 192 112 200 112 208 112 216 112 224 112 232 112 232 104 224 104 224 96 224 88 216 88 216 80 208 80 208 72 200 72 192 72 192 64 184 64 176 64 168 64 160 64 152 64 144 64 136 64 128 64 128 72 120 72 112 72 112 80 104 80 104 88 96 88 96 96 96 104 88 104 88 112 96 112 104 112"/><polygon class="cls-4" points="200 160 192 160 184 160 176 160 168 160 160 160 152 160 144 160 136 160 128 160 120 160 112 160 112 168 112 176 112 184 112 192 120 192 120 200 128 200 136 200 144 200 152 200 160 200 168 200 176 200 184 200 192 200 200 200 200 192 208 192 208 184 208 176 208 168 208 160 200 160"/><polygon class="cls-5" points="200 152 192 152 184 152 176 152 168 152 160 152 152 152 144 152 136 152 128 152 120 152 112 152 112 160 120 160 128 160 136 160 144 160 152 160 160 160 168 160 176 160 184 160 192 160 200 160 208 160 208 152 200 152"/></svg>